<svg width="28" height="21" viewBox="0 0 28 21" fill="none" xmlns="http://www.w3.org/2000/svg">
<path d="M2.70969 0C1.21301 0 0 1.24061 0 2.77128C0 4.30195 1.21301 5.5426 2.70969 5.5426C4.20637 5.5426 5.41938 4.30195 5.41938 2.77128C5.41938 1.24061 4.20632 0 2.70969 0ZM2.70969 7.39015C1.21301 7.39015 0 8.6308 0 10.1615C0 11.6922 1.21301 12.9328 2.70969 12.9328C4.20637 12.9328 5.41938 11.6922 5.41938 10.1615C5.41938 8.6308 4.20632 7.39015 2.70969 7.39015ZM2.70969 14.7803C1.21301 14.7803 0 16.021 0 17.5517C0 19.0823 1.21301 20.323 2.70969 20.323C4.20637 20.323 5.41938 19.0823 5.41938 17.5517C5.41938 16.021 4.20632 14.7803 2.70969 14.7803ZM9.03226 4.61883H26.1935C27.1916 4.61883 28 3.79205 28 2.77128C28 1.7505 27.1916 0.923728 26.1935 0.923728H9.03226C8.03418 0.923728 7.2258 1.7505 7.2258 2.77128C7.2258 3.79205 8.03418 4.61883 9.03226 4.61883ZM26.1936 8.31393H9.03226C8.03418 8.31393 7.2258 9.1407 7.2258 10.1615C7.2258 11.1822 8.03418 12.009 9.03226 12.009H26.1935C27.1916 12.009 28 11.1822 28 10.1615C28 9.1407 27.1917 8.31393 26.1936 8.31393ZM26.1936 15.7041H9.03226C8.03418 15.7041 7.2258 16.5309 7.2258 17.5516C7.2258 18.5724 8.03418 19.3991 9.03226 19.3991H26.1935C27.1916 19.3991 28 18.5724 28 17.5516C28 16.5309 27.1917 15.7041 26.1936 15.7041Z" fill="#E29DD4"/>
</svg>
