<svg width="15" height="15" viewBox="0 0 15 15" fill="none" xmlns="http://www.w3.org/2000/svg">
<path d="M14.8313 13.9759L11.4034 10.4046C12.1548 9.32435 12.6025 8.00033 12.6025 6.5638C12.6025 2.93871 9.78191 0 6.30123 0C2.82175 0 0 2.93871 0 6.5638C0 10.1889 2.82175 13.1276 6.30123 13.1276C7.98696 13.1276 9.51425 12.4343 10.6449 11.311L14.0169 14.8242C14.242 15.0586 14.6056 15.0586 14.8307 14.8242C15.0563 14.5904 15.0563 14.2103 14.8313 13.9759ZM6.30123 11.8773C3.48428 11.8773 1.20023 9.4975 1.20023 6.5638C1.20023 3.62947 3.48428 1.25025 6.30123 1.25025C9.11758 1.25025 11.4022 3.62947 11.4022 6.5638C11.4022 9.4975 9.11878 11.8773 6.30123 11.8773Z" fill="#786F71" fill-opacity="0.5"/>
</svg>
