<svg width="50" height="50" viewBox="0 0 50 50" fill="none" xmlns="http://www.w3.org/2000/svg">
<path d="M36.75 45.3125H13.3125C12.0086 45.3122 10.7219 45.0142 9.55073 44.4411C8.37952 43.8679 7.35467 43.0349 6.55435 42.0055C5.75403 40.9761 5.19938 39.7775 4.93271 38.5011C4.66605 37.2248 4.69441 35.9043 5.01563 34.6406L9.76563 15.25C9.85118 14.9033 10.0529 14.5964 10.3372 14.3803C10.6215 14.1643 10.9712 14.0521 11.3281 14.0625H37.5C37.8447 14.0467 38.1848 14.1454 38.4675 14.3433C38.7501 14.5412 38.9594 14.827 39.0625 15.1562L44.9688 34.1562C45.3726 35.4467 45.4656 36.8144 45.2402 38.1477C45.0148 39.4809 44.4774 40.7421 43.6719 41.8281C42.8795 42.9188 41.8379 43.8041 40.6337 44.4102C39.4296 45.0164 38.098 45.3257 36.75 45.3125ZM12.5 17.1875L7.98438 35.3906C7.78329 36.1937 7.76718 37.032 7.93725 37.8423C8.10733 38.6526 8.45915 39.4136 8.96619 40.0681C9.47323 40.7226 10.1222 41.2534 10.8643 41.6205C11.6064 41.9877 12.4221 42.1815 13.25 42.1875H36.6875C37.5378 42.1889 38.3764 41.9885 39.1342 41.6028C39.892 41.217 40.5476 40.657 41.0469 39.9687C41.5606 39.2765 41.9034 38.4726 42.0473 37.6227C42.1912 36.7728 42.1322 35.9009 41.875 35.0781L36.375 17.1875H12.5Z" fill="black"/>
<path d="M31.25 26.5625C30.8356 26.5625 30.4382 26.3979 30.1451 26.1049C29.8521 25.8118 29.6875 25.4144 29.6875 25V12.5C29.6875 11.2568 29.1936 10.0645 28.3146 9.18544C27.4355 8.30636 26.2432 7.8125 25 7.8125C23.7568 7.8125 22.5645 8.30636 21.6854 9.18544C20.8064 10.0645 20.3125 11.2568 20.3125 12.5V25C20.3125 25.4144 20.1479 25.8118 19.8549 26.1049C19.5618 26.3979 19.1644 26.5625 18.75 26.5625C18.3356 26.5625 17.9382 26.3979 17.6451 26.1049C17.3521 25.8118 17.1875 25.4144 17.1875 25V12.5C17.1875 10.428 18.0106 8.44086 19.4757 6.97573C20.9409 5.5106 22.928 4.6875 25 4.6875C27.072 4.6875 29.0591 5.5106 30.5243 6.97573C31.9894 8.44086 32.8125 10.428 32.8125 12.5V25C32.8125 25.4144 32.6479 25.8118 32.3549 26.1049C32.0618 26.3979 31.6644 26.5625 31.25 26.5625Z" fill="black"/>
</svg>
