<svg width="150" height="150" viewBox="0 0 150 150" fill="none" xmlns="http://www.w3.org/2000/svg">
<g clip-path="url(#clip0)">
<path d="M150 74.9432V75.1708C149.966 89.9899 145.543 104.467 137.289 116.774C129.035 129.082 117.32 138.668 103.622 144.324C89.9249 149.979 74.8591 151.45 60.3264 148.551C45.7938 145.651 32.4457 138.512 21.967 128.033C11.4884 117.554 4.34882 104.206 1.44949 89.6736C-1.44985 75.1409 0.0210085 60.0751 5.67641 46.3776C11.3318 32.6801 20.9183 20.965 33.2258 12.7109C45.5333 4.45684 60.0101 0.0337778 74.8292 0H75.0568C76.9541 0 78.6427 2.54447e-07 80.4452 0.208703C83.3683 0.412598 86.2764 0.792748 89.1537 1.34708C92.6619 2.01549 96.1175 2.93488 99.494 4.09816C109.912 8.28776 119.381 14.5301 127.337 22.4538C135.293 30.3775 141.575 39.8207 145.807 50.2214C147.028 53.6794 147.986 57.2248 148.672 60.8273C149.226 63.7365 149.606 66.6762 149.81 69.6307C150 71.3952 150 73.1787 150 74.9432Z" fill="#3C5B9B"/>
<path d="M88 53.4031V42.0002H77.4267C76.1611 41.9912 74.9065 42.2795 73.7352 42.8488C72.5639 43.418 71.4992 44.2567 70.6022 45.3167C69.7053 46.3767 68.9939 47.637 68.5092 49.0248C68.0244 50.4127 67.7758 51.9007 67.7778 53.4031V63.6915H62V75.0773H67.7778V108H79.3333V75.0944H86.9889L88 63.7086H79.4489V56.8497C79.4489 55.9402 79.7533 55.0679 80.295 54.4247C80.8368 53.7816 81.5716 53.4203 82.3378 53.4203L88 53.4031Z" fill="white"/>
<path d="M130 41C131.431 42.8898 132.767 44.8938 134 47" stroke="white" stroke-width="6.24" stroke-linecap="round" stroke-linejoin="round"/>
<path d="M100 16C107.9 19.19 115.343 24.2651 122 31" stroke="white" stroke-width="6.24" stroke-linecap="round" stroke-linejoin="round"/>
</g>
<defs>
<clipPath id="clip0">
<rect width="150" height="150" fill="white"/>
</clipPath>
</defs>
</svg>
