<svg width="150" height="150" viewBox="0 0 150 150" fill="none" xmlns="http://www.w3.org/2000/svg">
<path d="M150 0H0V150H150V0Z" fill="url(#paint0_linear)"/>
<path d="M75 40.1077C87.0079 40.1077 88.4315 40.1472 93.1766 40.3713C97.5659 40.5691 99.9517 41.3073 101.533 41.927C103.629 42.7443 105.132 43.7199 106.7 45.2887C108.269 46.8575 109.244 48.3604 110.062 50.4565C110.681 52.0385 111.406 54.4246 111.617 58.8147C111.828 63.5606 111.88 64.9844 111.88 76.9943C111.88 89.0042 111.841 90.428 111.617 95.174C111.419 99.564 110.681 101.95 110.062 103.532C109.244 105.628 108.269 107.131 106.7 108.7C105.132 110.269 103.629 111.244 101.533 112.062C99.9517 112.681 97.5659 113.406 93.1766 113.617C88.4315 113.828 87.0079 113.881 75 113.881C62.9921 113.881 61.5685 113.841 56.8234 113.617C52.4341 113.42 50.0483 112.681 48.4666 112.062C46.3708 111.244 44.8682 110.269 43.2996 108.7C41.7311 107.131 40.7557 105.628 39.9385 103.532C39.319 101.95 38.594 99.564 38.3831 95.174C38.1722 90.428 38.1195 89.0042 38.1195 76.9943C38.1195 64.9844 38.159 63.5606 38.3831 58.8147C38.5808 54.4246 39.319 52.0385 39.9385 50.4565C40.7557 48.3604 41.7311 46.8575 43.2996 45.2887C44.8682 43.7199 46.3708 42.7443 48.4666 41.927C50.0483 41.3073 52.4341 40.5823 56.8234 40.3713C61.5685 40.1472 62.9921 40.1077 75 40.1077ZM75 32C62.7812 32 61.2522 32.0527 56.4543 32.2768C51.6696 32.501 48.4007 33.2524 45.5272 34.373C42.5747 35.5067 40.0571 37.0492 37.5659 39.554C35.0615 42.0588 33.5325 44.5636 32.3726 47.5298C31.2654 50.3906 30.5009 53.66 30.2768 58.4587C30.0527 63.2574 30 64.7867 30 77.0075C30 89.2283 30.0527 90.7576 30.2768 95.5563C30.5009 100.342 31.2522 103.611 32.3726 106.485C33.5193 109.425 35.0615 111.943 37.5659 114.435C40.0703 116.939 42.5747 118.469 45.5404 119.629C48.4007 120.736 51.6696 121.501 56.4675 121.725C61.2654 121.949 62.7944 122.002 75.0132 122.002C87.232 122.002 88.761 121.949 93.5589 121.725C98.3436 121.501 101.612 120.749 104.486 119.629C107.425 118.482 109.943 116.939 112.434 114.435C114.938 111.93 116.467 109.425 117.627 106.459C118.735 103.598 119.499 100.329 119.723 95.5299C119.947 90.7312 120 89.202 120 76.9811C120 64.7603 119.947 63.231 119.723 58.4323C119.499 53.6468 118.748 50.3774 117.627 47.5035C116.481 44.5636 114.938 42.0456 112.434 39.554C109.93 37.0492 107.425 35.5199 104.46 34.3598C101.599 33.2524 98.3304 32.4878 93.5325 32.2637C88.7478 32.0527 87.2188 32 75 32Z" fill="white"/>
<path d="M77 58C66.5083 58 58 66.5083 58 77C58 87.4917 66.5083 96 77 96C87.4917 96 96 87.4917 96 77C96 66.5083 87.4917 58 77 58ZM77 89.3343C70.1934 89.3343 64.6657 83.8175 64.6657 77C64.6657 70.1825 70.1934 64.6657 77 64.6657C83.8066 64.6657 89.3343 70.1825 89.3343 77C89.3343 83.8175 83.8066 89.3343 77 89.3343Z" fill="white"/>
<path d="M98 58C100.761 58 103 55.7614 103 53C103 50.2386 100.761 48 98 48C95.2386 48 93 50.2386 93 53C93 55.7614 95.2386 58 98 58Z" fill="white"/>
<path d="M131 36C132.431 37.8898 133.767 39.8938 135 42" stroke="white" stroke-width="6.24" stroke-linecap="round" stroke-linejoin="round"/>
<path d="M101 11C108.9 14.19 116.343 19.2651 123 26" stroke="white" stroke-width="6.24" stroke-linecap="round" stroke-linejoin="round"/>
<defs>
<linearGradient id="paint0_linear" x1="0" y1="150" x2="150" y2="0" gradientUnits="userSpaceOnUse">
<stop stop-color="#FFD521"/>
<stop offset="0.0551048" stop-color="#FFD020"/>
<stop offset="0.1241" stop-color="#FEC01E"/>
<stop offset="0.2004" stop-color="#FCA71B"/>
<stop offset="0.2821" stop-color="#FA8316"/>
<stop offset="0.3681" stop-color="#F85510"/>
<stop offset="0.4563" stop-color="#F51E09"/>
<stop offset="0.5" stop-color="#F30005"/>
<stop offset="0.5035" stop-color="#F20007"/>
<stop offset="0.5966" stop-color="#E1003B"/>
<stop offset="0.6879" stop-color="#D30067"/>
<stop offset="0.7757" stop-color="#C70088"/>
<stop offset="0.8589" stop-color="#BF00A0"/>
<stop offset="0.9357" stop-color="#BB00AF"/>
<stop offset="1" stop-color="#B900B4"/>
</linearGradient>
</defs>
</svg>
