<?xml version="1.0" standalone="no"?>
<!DOCTYPE svg PUBLIC "-//W3C//DTD SVG 20010904//EN"
 "http://www.w3.org/TR/2001/REC-SVG-20010904/DTD/svg10.dtd">
<svg version="1.0" xmlns="http://www.w3.org/2000/svg"
 width="680.000000pt" height="510.000000pt" viewBox="0 0 680.000000 510.000000"
 preserveAspectRatio="xMidYMid meet">

<g transform="translate(0.000000,510.000000) scale(0.100000,-0.100000)"
fill="#000000" stroke="none">
<path d="M2430 4943 c-8 -3 -19 -12 -23 -19 -4 -8 -15 -14 -23 -14 -8 0 -19
-11 -24 -25 -5 -14 -13 -25 -18 -25 -5 0 -17 -18 -28 -40 -10 -22 -22 -40 -25
-40 -3 0 -12 -18 -19 -40 -7 -22 -17 -40 -21 -40 -5 0 -14 -18 -20 -40 -7 -22
-16 -40 -20 -40 -5 0 -16 -25 -24 -55 -9 -30 -20 -55 -25 -55 -4 0 -13 -20
-19 -45 -6 -25 -15 -45 -20 -45 -4 0 -13 -25 -20 -55 -7 -30 -16 -55 -20 -55
-5 0 -14 -27 -21 -61 -7 -33 -19 -66 -25 -73 -7 -7 -18 -38 -25 -69 -7 -31
-16 -57 -20 -57 -4 0 -13 -27 -20 -60 -7 -33 -16 -60 -21 -60 -4 0 -10 -14
-14 -31 -4 -17 -14 -33 -23 -37 -9 -3 -30 -21 -46 -39 -17 -18 -35 -33 -40
-33 -5 0 -34 -26 -65 -57 -83 -85 -94 -89 -128 -53 -15 17 -34 30 -40 30 -7 0
-13 4 -13 8 0 13 -72 32 -119 32 -56 0 -134 -20 -144 -37 -4 -7 -14 -13 -22
-13 -7 0 -20 -6 -27 -14 -8 -7 -28 -21 -46 -30 -18 -9 -32 -21 -32 -26 0 -6
-6 -10 -13 -10 -7 0 -24 -12 -38 -27 -14 -16 -41 -39 -59 -53 -19 -14 -43 -36
-55 -49 -36 -42 -109 -111 -117 -111 -4 0 -8 -6 -8 -14 0 -12 -13 -28 -100
-124 -17 -18 -30 -36 -30 -40 0 -6 -41 -56 -85 -103 -8 -9 -15 -21 -15 -27 0
-6 -6 -15 -13 -19 -7 -4 -21 -25 -32 -45 -11 -21 -23 -38 -28 -38 -4 0 -12
-11 -17 -25 -5 -14 -14 -25 -20 -25 -5 0 -10 -6 -10 -13 0 -7 -9 -23 -20 -35
-11 -12 -20 -24 -20 -28 0 -13 -35 -80 -52 -98 -10 -11 -18 -26 -18 -33 0 -7
-4 -13 -8 -13 -5 0 -15 -18 -22 -40 -7 -22 -16 -40 -19 -40 -4 0 -13 -20 -20
-46 -7 -25 -20 -51 -27 -58 -7 -8 -19 -36 -25 -62 -7 -27 -15 -51 -19 -54 -11
-8 -30 -70 -30 -96 0 -13 -4 -24 -9 -24 -14 0 -31 -133 -31 -243 0 -105 13
-206 28 -216 5 -4 14 -20 19 -37 11 -31 19 -42 75 -107 15 -18 28 -35 28 -38
0 -4 14 -12 30 -19 17 -7 30 -16 30 -21 0 -10 94 -39 127 -39 13 0 23 -4 23
-10 0 -5 20 -10 45 -10 25 0 45 5 45 10 0 6 10 10 22 10 28 0 128 32 128 41 0
3 14 12 30 19 17 7 30 16 30 21 0 5 11 14 25 19 14 5 25 14 25 19 0 5 9 12 20
16 21 7 220 201 220 215 0 4 11 18 25 31 13 13 25 29 25 36 0 7 9 17 20 23 11
6 20 17 20 25 0 8 9 20 20 27 11 7 20 18 20 25 0 6 8 18 18 25 10 7 25 28 33
46 7 17 17 32 21 32 5 0 16 18 25 40 18 41 33 52 33 25 0 -8 -4 -15 -9 -15 -4
0 -16 -37 -26 -82 -10 -46 -22 -86 -27 -89 -5 -3 -12 -31 -15 -63 -6 -55 -5
-58 28 -87 54 -48 107 -27 142 57 9 21 16 31 16 22 1 -10 5 -18 10 -18 4 0 14
-27 21 -60 7 -33 16 -60 21 -60 4 0 14 -19 21 -42 6 -24 16 -46 21 -49 4 -3
15 -32 23 -64 9 -32 21 -64 29 -71 7 -8 16 -32 20 -54 4 -22 10 -40 15 -40 4
0 14 -20 21 -45 7 -25 21 -47 30 -50 10 -3 20 -12 22 -19 3 -8 19 -17 36 -21
17 -4 31 -11 31 -16 0 -6 14 -15 30 -20 17 -6 30 -15 30 -20 0 -5 18 -17 40
-26 22 -10 40 -21 40 -25 0 -5 6 -8 13 -8 7 0 22 -8 33 -18 10 -10 34 -25 52
-32 17 -8 32 -18 32 -23 0 -4 18 -14 40 -23 22 -9 40 -20 40 -24 0 -5 9 -12
20 -15 11 -3 26 -12 32 -19 7 -6 30 -20 51 -29 20 -10 37 -22 37 -26 0 -5 10
-11 23 -15 13 -3 36 -17 53 -31 16 -14 35 -25 42 -25 6 0 12 -4 12 -8 0 -4 20
-16 45 -26 25 -11 45 -23 45 -28 0 -5 11 -13 25 -18 14 -5 25 -14 25 -19 0 -5
14 -12 31 -16 17 -4 33 -13 35 -20 3 -7 19 -19 35 -25 16 -7 29 -15 29 -19 0
-4 20 -15 45 -25 25 -11 45 -22 45 -26 0 -4 14 -13 30 -20 17 -7 30 -16 30
-21 0 -5 11 -11 25 -15 14 -3 29 -11 33 -18 4 -6 26 -20 50 -30 23 -11 42 -23
42 -27 0 -4 16 -13 35 -20 19 -7 35 -16 35 -21 0 -4 17 -15 38 -25 20 -9 46
-25 56 -35 11 -10 26 -18 33 -18 7 0 13 -4 13 -8 0 -5 16 -14 35 -22 19 -8 35
-18 35 -22 0 -5 16 -16 35 -24 19 -8 35 -19 35 -24 0 -6 6 -10 13 -10 6 0 25
-11 41 -25 16 -14 35 -25 42 -25 7 0 19 -6 26 -13 7 -7 28 -20 46 -28 17 -7
32 -17 32 -20 0 -3 18 -14 40 -24 22 -10 40 -21 40 -26 0 -4 14 -12 30 -18 17
-5 30 -14 30 -18 0 -4 15 -15 33 -22 17 -8 38 -21 45 -28 7 -7 21 -13 30 -13
17 0 62 41 62 55 0 5 17 24 38 44 21 20 45 52 52 71 8 19 27 47 42 62 16 15
28 31 28 36 0 4 9 17 19 29 10 11 26 34 35 52 16 30 36 57 63 86 7 7 15 24 19
39 3 15 15 31 25 37 11 5 19 16 19 24 0 8 9 20 20 27 11 7 20 17 20 23 0 6 12
24 28 41 15 17 34 42 42 54 8 13 27 37 43 53 15 17 30 41 33 53 3 12 12 25 20
28 8 3 14 12 14 20 0 8 6 19 13 23 7 4 21 25 31 46 9 20 21 37 27 37 5 0 14
11 19 25 5 14 14 25 20 25 5 0 10 6 10 13 0 6 14 28 30 47 16 19 30 40 30 47
0 7 9 17 20 23 11 6 20 17 20 25 0 8 9 19 20 25 11 6 20 16 20 23 0 7 12 23
25 36 14 13 25 31 25 40 0 9 8 24 18 32 24 22 48 53 63 80 6 13 20 32 30 43
11 11 19 23 19 26 0 4 11 20 25 36 14 16 25 32 25 36 0 5 9 18 20 30 36 40 45
52 60 83 8 17 23 36 33 43 9 7 17 19 17 25 0 7 9 18 20 25 11 7 20 19 20 27 0
8 4 15 10 15 5 0 17 17 27 38 9 20 25 43 35 50 10 7 18 17 18 23 0 5 9 19 20
32 12 12 27 29 34 37 8 9 19 67 27 140 14 139 23 160 54 122 53 -64 78 -82
140 -95 63 -13 154 1 181 28 8 8 22 15 30 15 8 0 17 7 20 15 4 8 11 15 18 15
13 0 60 39 129 107 26 25 48 44 50 42 2 -2 9 -24 17 -48 8 -24 21 -46 29 -49
9 -3 21 -11 26 -18 6 -6 28 -14 50 -18 43 -6 155 11 155 25 0 4 18 14 40 20
22 7 40 16 40 21 0 5 11 13 25 18 14 5 25 14 25 19 0 5 8 12 19 16 10 3 29 15
42 26 13 11 39 33 57 47 78 62 142 131 142 152 0 24 -60 85 -93 96 -13 4 -27
-2 -41 -17 -12 -13 -37 -35 -55 -49 -19 -14 -50 -41 -70 -61 -20 -19 -51 -44
-70 -55 -19 -10 -43 -26 -52 -34 -40 -34 -50 -41 -74 -50 -52 -20 -58 -15 -51
42 4 29 11 55 15 58 5 3 14 29 21 58 6 28 15 52 19 52 4 0 13 20 20 45 7 25
16 45 20 45 11 0 41 91 41 123 0 36 -16 67 -35 67 -8 0 -15 5 -15 10 0 6 -11
10 -25 10 -14 0 -25 -3 -25 -8 0 -4 -10 -12 -22 -17 -12 -6 -26 -19 -32 -30
-6 -11 -14 -22 -17 -25 -3 -3 -8 -13 -12 -22 -12 -32 -34 -20 -41 22 -3 23
-13 43 -21 46 -22 9 -103 -5 -118 -20 -7 -7 -36 -19 -65 -25 -28 -7 -52 -17
-52 -22 0 -5 -20 -14 -45 -20 -25 -6 -45 -15 -45 -19 0 -5 -17 -14 -37 -21
-21 -6 -46 -20 -56 -30 -10 -11 -24 -19 -33 -19 -8 0 -17 -7 -20 -15 -4 -8
-11 -15 -18 -15 -10 0 -36 -19 -100 -76 -18 -16 -18 -15 -13 27 4 24 10 80 13
124 4 44 10 82 14 85 7 5 25 147 36 280 3 41 9 77 13 80 4 3 14 71 21 153 7
81 16 147 19 147 4 0 13 61 19 135 15 153 10 175 -38 175 -17 0 -30 4 -30 9 0
5 -24 15 -52 21 -29 7 -55 16 -58 19 -3 4 -24 13 -47 19 -24 7 -43 17 -43 22
0 6 -12 10 -27 10 -27 1 -99 28 -77 29 6 1 19 30 29 66 9 36 21 65 25 65 4 0
13 23 20 50 7 28 16 50 20 50 5 0 14 25 21 55 7 30 15 55 19 55 4 0 15 39 25
88 10 48 23 90 29 94 14 9 15 276 0 286 -6 4 -13 15 -17 25 -4 9 -15 20 -24
24 -10 4 -24 13 -31 20 -20 19 -76 16 -102 -7 -12 -11 -31 -22 -41 -25 -11 -4
-19 -12 -19 -18 0 -7 -13 -28 -30 -47 -16 -19 -32 -47 -35 -62 -4 -15 -10 -28
-15 -28 -5 0 -14 -16 -20 -35 -6 -19 -15 -35 -19 -35 -4 0 -13 -18 -20 -40 -6
-22 -15 -40 -20 -40 -4 0 -15 -27 -25 -60 -10 -33 -21 -60 -25 -60 -4 0 -14
-22 -21 -50 -7 -27 -16 -50 -20 -50 -3 0 -12 -24 -20 -52 -7 -29 -16 -55 -20
-58 -4 -3 -11 -23 -17 -45 -9 -38 -11 -40 -43 -37 -19 1 -37 6 -40 11 -3 4
-26 14 -52 22 -27 7 -48 16 -48 20 0 3 -26 12 -57 19 -32 7 -60 15 -63 19 -6
8 -107 41 -126 41 -8 0 -14 4 -14 8 0 5 -26 15 -57 22 -31 7 -63 18 -70 25 -7
7 -31 16 -53 20 -22 4 -40 10 -40 14 0 4 -31 15 -70 25 -38 10 -70 22 -70 25
0 4 -22 13 -50 20 -27 7 -50 17 -50 22 0 5 -9 9 -20 9 -28 0 -110 23 -110 31
0 4 -31 15 -70 25 -38 10 -70 21 -70 25 0 4 -18 10 -40 14 -22 4 -46 12 -53
19 -6 7 -38 18 -69 25 -32 7 -58 16 -58 21 0 5 -27 14 -61 21 -33 7 -66 17
-72 23 -7 7 -38 18 -69 25 -32 7 -58 16 -58 20 0 5 -27 14 -60 21 -33 7 -60
17 -60 21 0 17 -35 9 -48 -11 -7 -11 -16 -20 -21 -20 -7 0 -75 -60 -157 -140
-12 -11 -25 -20 -29 -20 -5 0 -35 -27 -67 -60 -33 -33 -62 -60 -66 -60 -4 0
-22 -13 -40 -30 -18 -16 -39 -30 -45 -30 -8 0 -9 3 -1 8 11 8 44 147 44 187 0
14 5 25 10 25 6 0 10 38 10 95 0 52 -4 95 -9 95 -4 0 -12 14 -17 31 -5 18 -18
37 -29 43 -11 6 -23 15 -26 19 -8 11 -80 18 -99 10z m98 -53 c2 -6 11 -18 20
-27 14 -14 17 -38 16 -146 0 -76 -4 -131 -10 -135 -6 -4 -17 -35 -24 -69 -7
-35 -17 -63 -21 -63 -5 0 -9 -8 -9 -17 0 -19 -22 -86 -31 -93 -3 -3 -14 -38
-24 -77 -10 -40 -22 -73 -27 -73 -4 0 -13 -20 -19 -45 -6 -25 -14 -45 -18 -45
-4 0 -13 -20 -20 -45 -7 -25 -16 -45 -20 -45 -4 0 -16 -29 -26 -65 -11 -36
-23 -65 -27 -65 -4 0 -13 -18 -19 -40 -7 -22 -16 -40 -20 -40 -5 0 -14 -20
-20 -45 -6 -25 -15 -45 -19 -45 -4 0 -16 -22 -26 -50 -10 -27 -21 -50 -24 -50
-4 0 -13 -18 -20 -40 -7 -22 -16 -40 -19 -40 -4 0 -13 -20 -20 -45 -7 -25 -16
-45 -20 -45 -4 0 -15 -22 -25 -50 -10 -27 -21 -50 -25 -50 -4 0 -13 -18 -20
-40 -6 -22 -15 -40 -20 -40 -4 0 -14 -18 -21 -40 -7 -22 -16 -40 -19 -40 -3 0
-15 -20 -26 -45 -11 -25 -22 -45 -26 -45 -3 0 -12 -18 -19 -40 -7 -22 -17 -40
-21 -40 -5 0 -14 -18 -20 -40 -7 -22 -15 -40 -19 -40 -4 0 -15 -20 -24 -45
-10 -25 -21 -45 -26 -45 -5 0 -14 -17 -21 -37 -6 -21 -18 -43 -25 -50 -7 -7
-15 -31 -19 -53 -4 -22 -10 -40 -14 -40 -4 0 -15 -40 -25 -90 -11 -49 -22 -90
-25 -90 -8 0 -34 -120 -28 -127 3 -2 8 5 12 16 3 12 10 21 14 21 4 0 16 18 26
40 10 22 21 40 25 40 4 0 13 14 20 30 7 17 16 30 21 30 5 0 14 11 19 25 5 14
13 25 18 25 5 0 14 10 19 23 12 23 36 57 66 88 9 11 17 22 17 25 0 17 194 196
223 206 17 6 35 15 38 20 11 16 97 11 115 -6 8 -9 20 -16 25 -16 5 0 9 -6 9
-14 0 -8 7 -17 16 -20 22 -9 15 -104 -10 -132 -84 -91 -125 -131 -149 -143
-15 -8 -27 -18 -27 -21 0 -4 -13 -13 -30 -20 -16 -7 -30 -16 -30 -21 0 -5 -18
-17 -40 -26 -22 -10 -40 -21 -40 -25 0 -5 -6 -8 -13 -8 -7 0 -23 -9 -34 -20
-12 -10 -33 -22 -46 -25 l-25 -7 21 -24 c11 -13 25 -24 30 -24 4 0 15 -6 23
-14 21 -21 130 -30 215 -17 40 7 76 15 79 20 3 4 26 14 53 22 26 7 47 16 47
19 0 4 16 12 35 20 19 8 35 17 35 21 0 3 13 12 30 19 17 7 30 16 30 21 0 4 17
16 37 25 40 20 69 44 179 151 40 39 83 74 94 78 11 3 20 11 20 16 0 6 13 15
29 20 16 6 32 16 34 23 3 8 18 16 32 20 15 4 33 13 41 20 7 8 33 20 58 27 26
7 46 16 46 20 0 4 20 12 45 18 25 6 45 15 45 20 0 8 109 36 116 28 2 -2 5 -21
7 -42 l2 -39 -60 -14 c-33 -9 -66 -21 -73 -28 -7 -7 -28 -16 -47 -20 -19 -3
-35 -10 -35 -14 0 -5 -16 -14 -35 -20 -19 -6 -35 -16 -35 -21 0 -5 -5 -9 -11
-9 -14 0 -81 -31 -95 -45 -6 -5 -23 -19 -39 -30 -125 -90 -147 -176 -66 -267
18 -21 34 -28 60 -28 44 0 96 14 116 32 8 7 26 22 41 33 44 34 144 130 144
139 0 5 16 23 35 42 19 18 35 37 35 43 0 5 8 16 18 23 10 7 21 20 25 28 9 21
29 50 47 70 8 9 22 27 30 40 8 13 23 32 33 42 9 10 17 20 17 23 0 24 38 85 56
89 29 8 54 -2 54 -20 0 -8 6 -14 13 -14 8 0 9 -3 1 -8 -6 -4 -14 -19 -17 -34
-4 -15 -13 -33 -20 -40 -7 -7 -18 -32 -25 -55 -7 -24 -16 -43 -21 -43 -4 0
-16 -35 -27 -77 -10 -43 -22 -81 -27 -84 -5 -3 -9 -35 -10 -70 l-2 -64 52 1
c31 1 58 8 67 16 8 8 29 21 48 28 18 8 39 22 46 32 7 10 17 18 23 18 11 0 24
11 118 100 41 38 82 70 91 70 21 0 68 -52 52 -58 -40 -13 42 -42 117 -42 23 0
41 -4 41 -10 0 -12 27 -13 32 -1 2 4 54 12 116 16 96 6 112 5 112 -8 0 -9 5
-17 12 -19 12 -4 -73 -98 -89 -98 -5 0 -25 -18 -46 -40 -20 -22 -41 -40 -46
-40 -5 0 -22 -13 -38 -30 -15 -16 -31 -30 -35 -30 -4 0 -23 -16 -42 -35 -20
-19 -39 -35 -44 -35 -14 0 -36 -29 -28 -37 4 -4 10 -2 14 4 16 26 233 32 250
6 4 -5 14 -12 24 -16 9 -3 19 -19 23 -36 4 -17 11 -31 15 -31 10 0 30 63 30
93 0 9 4 17 9 17 5 0 16 38 26 85 10 47 21 85 25 85 4 0 13 29 20 65 7 36 16
65 20 65 4 0 13 29 20 65 7 36 15 65 19 65 4 0 16 41 26 90 10 50 22 90 26 90
4 0 13 29 20 65 7 36 16 65 20 65 4 0 13 29 20 65 7 36 16 65 19 65 4 0 16 38
26 85 10 47 21 85 25 85 3 0 12 27 19 60 7 33 16 60 20 60 4 0 13 29 20 65 7
36 16 65 19 65 4 0 16 36 26 80 10 44 22 80 26 80 4 0 13 24 19 53 7 28 16 54
20 57 3 3 12 31 19 63 7 31 16 57 20 57 4 0 16 36 26 80 10 44 22 80 26 80 4
0 12 23 19 50 7 28 15 50 19 50 4 0 14 26 21 58 7 31 16 60 21 63 5 3 17 32
26 65 9 32 23 65 30 72 7 7 15 28 19 47 3 19 10 35 15 35 4 0 14 18 20 40 7
22 15 40 19 40 4 0 15 21 25 48 10 26 24 51 32 55 7 4 13 14 13 22 0 8 9 19
20 25 11 6 20 17 20 26 0 8 8 18 18 21 9 4 23 13 30 20 33 33 100 5 122 -51
19 -51 3 -316 -20 -316 -4 0 -13 -28 -20 -62 -8 -35 -19 -69 -26 -75 -7 -7
-15 -31 -19 -53 -4 -22 -10 -40 -14 -40 -4 0 -14 -25 -21 -56 -8 -31 -19 -61
-25 -68 -6 -6 -17 -33 -25 -61 -8 -27 -20 -56 -27 -63 -7 -7 -15 -28 -19 -47
-3 -19 -10 -35 -15 -35 -5 0 -16 -25 -24 -55 -9 -30 -20 -55 -24 -55 -4 0 -13
-18 -20 -40 -6 -22 -16 -40 -20 -40 -5 0 -12 -16 -15 -35 -4 -19 -13 -40 -20
-47 -7 -7 -21 -36 -31 -63 -11 -28 -25 -56 -32 -63 -7 -7 -15 -28 -19 -47 -3
-19 -10 -35 -15 -35 -4 0 -14 -18 -20 -40 -7 -22 -16 -40 -20 -40 -4 0 -15
-22 -25 -50 -10 -27 -21 -50 -24 -50 -4 0 -13 -18 -20 -40 -7 -22 -17 -40 -21
-40 -4 0 -13 -17 -20 -37 -6 -20 -20 -46 -30 -56 -10 -11 -21 -33 -24 -48 -4
-16 -10 -29 -15 -29 -5 0 -14 -16 -20 -35 -6 -19 -15 -35 -20 -35 -5 0 -11
-14 -15 -30 -4 -17 -12 -36 -18 -43 -7 -6 -21 -31 -31 -54 -11 -24 -22 -43
-26 -43 -4 0 -12 -18 -19 -40 -6 -22 -16 -40 -20 -40 -5 0 -15 -29 -22 -65 -7
-36 -16 -65 -19 -65 -4 0 -15 -39 -25 -87 -10 -49 -22 -90 -26 -93 -4 -3 -10
-23 -14 -45 l-8 -40 21 23 c11 12 25 36 32 52 7 17 16 30 20 30 4 0 13 13 20
30 7 17 16 30 20 30 3 0 13 12 21 27 14 27 18 33 64 87 13 15 27 37 30 47 4
11 11 19 16 19 5 0 13 8 16 17 12 30 189 199 224 213 19 8 37 18 40 23 11 16
112 10 121 -7 5 -9 14 -16 21 -16 37 0 48 -132 13 -168 -100 -107 -126 -132
-135 -132 -5 0 -16 -8 -23 -18 -7 -10 -28 -25 -45 -33 -18 -7 -33 -17 -33 -21
0 -4 -17 -15 -37 -25 -21 -9 -44 -23 -51 -30 -7 -7 -17 -13 -22 -13 -5 0 -15
-6 -22 -13 -7 -7 -24 -17 -37 -23 l-25 -10 21 -20 c45 -40 55 -46 114 -57 63
-11 216 3 228 21 3 5 27 14 54 22 26 7 47 16 47 19 0 4 16 13 35 21 19 8 35
17 35 22 0 4 6 8 13 8 7 0 22 9 34 19 11 10 35 27 54 36 19 10 46 31 62 46 15
16 31 29 35 29 8 0 61 51 131 124 19 20 40 36 47 36 8 0 14 5 14 10 0 6 11 15
25 20 14 5 25 13 25 18 0 5 18 15 40 22 22 7 40 16 40 20 0 3 23 14 50 24 28
10 50 21 50 25 0 4 25 14 55 21 30 7 55 16 55 20 0 9 92 30 102 24 5 -3 8 -14
8 -25 0 -10 5 -19 10 -19 6 0 10 -7 10 -15 0 -13 -82 -45 -117 -45 -7 0 -13
-4 -13 -9 0 -5 -20 -14 -45 -20 -25 -6 -45 -15 -45 -20 0 -4 -18 -13 -40 -20
-22 -6 -40 -15 -40 -20 0 -4 -18 -14 -40 -21 -23 -8 -44 -18 -48 -24 -4 -6
-20 -18 -36 -26 -41 -21 -111 -93 -126 -129 -17 -43 -7 -112 19 -130 12 -7 21
-19 21 -26 0 -14 31 -25 74 -25 35 0 96 20 96 32 0 4 7 8 15 8 8 0 22 11 31
25 9 14 21 25 28 25 6 0 24 14 40 30 16 17 33 30 38 30 4 0 8 6 8 14 0 7 22
38 50 67 65 70 75 83 83 100 14 28 32 54 50 67 9 7 17 19 17 26 0 8 7 16 15
20 8 3 15 12 15 20 0 8 6 19 13 23 7 4 21 26 31 47 29 63 49 79 85 71 27 -6
31 -11 31 -41 0 -19 -4 -34 -8 -34 -5 0 -15 -18 -22 -40 -7 -22 -17 -40 -21
-40 -5 0 -14 -20 -20 -45 -6 -25 -15 -45 -19 -45 -4 0 -16 -38 -26 -85 -10
-47 -22 -85 -26 -85 -5 0 -8 -20 -8 -44 0 -36 4 -46 20 -51 26 -8 100 4 100
16 0 5 16 15 35 23 33 14 47 23 84 57 10 8 24 19 32 22 30 14 54 34 108 89 31
32 61 58 66 58 6 0 22 -13 38 -29 l27 -29 -42 -41 c-22 -23 -44 -41 -48 -41
-4 0 -26 -18 -49 -40 -23 -22 -45 -40 -49 -40 -4 0 -23 -14 -42 -30 -19 -16
-41 -30 -47 -30 -7 0 -13 -4 -13 -9 0 -5 -16 -15 -35 -21 -19 -6 -35 -15 -35
-20 0 -5 -24 -14 -54 -20 -62 -13 -146 2 -146 27 0 7 -7 16 -15 19 -12 5 -15
25 -16 88 0 67 -2 78 -12 62 -24 -38 -213 -224 -244 -240 -18 -9 -33 -20 -33
-25 0 -15 -117 -34 -164 -27 -36 6 -54 17 -91 53 -25 26 -45 50 -45 55 0 5 -7
16 -15 24 -8 9 -15 24 -15 35 0 26 -19 24 -54 -6 -16 -13 -37 -27 -47 -30 -11
-4 -19 -10 -19 -14 0 -5 -13 -14 -30 -21 -16 -7 -30 -15 -30 -19 0 -4 -24 -16
-52 -26 -29 -10 -58 -24 -65 -31 -7 -6 -29 -15 -50 -19 -21 -4 -41 -12 -45
-18 -10 -17 -290 -17 -295 0 -2 7 -21 17 -41 24 -40 13 -51 21 -95 64 -28 28
-30 29 -41 11 -6 -10 -19 -26 -28 -35 -10 -8 -18 -21 -18 -29 0 -7 -6 -15 -14
-18 -8 -3 -18 -18 -21 -33 -3 -16 -14 -37 -24 -47 -9 -11 -24 -34 -31 -51 -8
-18 -18 -33 -22 -33 -5 0 -8 -6 -8 -13 0 -7 -8 -22 -18 -33 -10 -11 -27 -38
-37 -62 -10 -23 -22 -42 -26 -42 -4 0 -10 -14 -14 -30 -4 -17 -10 -30 -15 -30
-5 0 -14 -2 -22 -5 -21 -8 -39 10 -48 46 -6 29 -8 31 -15 15 -9 -21 -17 -31
-70 -89 -19 -21 -35 -42 -35 -46 0 -10 -190 -201 -200 -201 -5 0 -24 -15 -43
-32 -60 -56 -86 -76 -117 -90 -16 -7 -30 -16 -30 -20 0 -4 -15 -15 -32 -24
-18 -9 -35 -20 -38 -24 -3 -4 -22 -13 -42 -19 -21 -7 -38 -16 -38 -21 0 -4
-24 -14 -52 -20 -29 -7 -56 -17 -59 -23 -4 -5 -42 -10 -86 -11 -63 -1 -83 3
-97 17 -10 9 -23 17 -29 17 -16 0 -45 34 -58 66 -19 51 -2 224 21 224 5 0 14
16 20 35 6 19 15 35 20 35 5 0 12 9 15 20 3 11 12 26 19 32 6 7 20 24 29 38 9
13 17 19 17 13 0 -6 14 -16 30 -23 34 -14 38 -31 13 -59 -31 -33 -38 -45 -57
-86 -11 -22 -22 -42 -26 -45 -13 -9 -29 -103 -23 -133 3 -17 15 -33 29 -39 13
-6 24 -15 24 -20 0 -10 87 -11 92 0 2 4 34 15 72 25 38 10 75 25 83 33 8 8 21
14 28 14 8 0 18 6 22 13 4 7 25 21 46 31 20 9 37 21 37 26 0 5 9 12 21 15 11
4 36 22 56 41 19 19 38 34 41 34 6 0 61 48 150 130 17 17 32 34 32 38 0 4 17
24 38 43 20 19 46 51 56 70 11 18 25 38 33 42 7 4 13 14 13 22 0 8 6 18 13 22
17 11 37 58 37 88 0 13 5 25 12 27 8 3 5 12 -10 28 -20 21 -27 23 -103 17 -45
-3 -85 -10 -88 -15 -3 -5 -30 -15 -58 -22 -29 -8 -53 -17 -53 -21 0 -4 -16
-13 -35 -19 -19 -6 -35 -16 -35 -21 0 -5 -7 -9 -15 -9 -17 0 -89 -32 -93 -42
-2 -4 -19 -12 -39 -19 -29 -9 -38 -9 -50 4 -18 17 -9 77 11 77 7 0 21 10 33
23 18 20 38 37 111 94 13 10 44 36 68 58 24 22 58 51 75 65 17 14 49 42 71 62
22 21 43 38 47 38 8 0 91 78 91 85 0 3 -36 5 -81 5 -77 0 -168 15 -179 30 -3
4 -14 10 -25 14 -21 6 -48 -9 -90 -52 -12 -12 -27 -22 -33 -22 -6 0 -17 -8
-24 -18 -7 -10 -28 -25 -45 -33 -18 -7 -33 -18 -33 -22 0 -4 -13 -13 -30 -18
-16 -6 -30 -15 -30 -19 0 -12 -126 -31 -157 -24 -54 14 -77 51 -84 139 -3 44
-7 73 -8 65 0 -8 -19 -31 -41 -50 -22 -19 -40 -39 -40 -43 0 -10 -65 -77 -74
-77 -4 0 -22 -15 -39 -33 -18 -18 -47 -39 -64 -46 -18 -8 -33 -17 -33 -22 0
-25 -140 -38 -187 -16 -44 19 -123 107 -123 137 0 35 -16 44 -49 29 -17 -8
-31 -17 -31 -22 0 -4 -11 -12 -25 -17 -14 -5 -25 -14 -25 -20 0 -5 -6 -10 -13
-10 -7 0 -22 -8 -33 -18 -10 -10 -41 -26 -69 -37 -27 -10 -55 -24 -62 -31 -7
-6 -29 -15 -50 -19 -21 -4 -41 -12 -45 -18 -10 -16 -286 -17 -296 -1 -4 6 -24
17 -44 25 -21 7 -38 17 -38 21 0 4 -6 8 -13 8 -8 0 -26 14 -42 31 l-27 31 -29
-33 c-16 -19 -29 -39 -29 -45 0 -7 -6 -14 -14 -17 -8 -3 -17 -20 -21 -37 -4
-17 -13 -34 -20 -36 -8 -3 -18 -19 -24 -35 -5 -16 -14 -29 -20 -29 -5 0 -12
-14 -16 -31 -4 -17 -13 -33 -20 -35 -7 -3 -21 -25 -31 -50 -10 -24 -21 -44
-26 -44 -4 0 -12 -18 -19 -39 -20 -67 -89 -63 -89 5 0 34 22 124 31 124 4 0
13 29 20 65 7 36 16 65 20 65 4 0 12 29 19 65 7 36 16 65 20 65 4 0 15 38 25
85 10 47 21 85 24 85 4 0 13 29 20 65 7 36 16 65 20 65 5 0 14 32 21 70 7 39
16 70 20 70 4 0 15 38 25 85 10 47 21 85 25 85 4 0 13 29 20 65 7 36 16 65 20
65 4 0 13 29 20 65 7 36 16 65 20 65 4 0 15 38 25 85 10 47 21 85 25 85 4 0
13 27 20 60 7 33 16 60 20 60 3 0 12 29 19 65 7 36 16 65 20 65 4 0 15 34 25
75 10 41 21 75 26 75 4 0 14 29 21 65 7 36 16 65 19 65 4 0 13 25 20 55 7 30
16 55 20 55 3 0 14 34 24 75 10 41 21 75 25 75 4 0 14 25 21 55 7 30 17 55 21
55 4 0 10 18 14 40 4 22 12 46 19 53 7 6 20 39 29 71 9 33 21 62 26 65 5 3 14
25 20 49 7 23 15 42 20 42 4 0 13 18 20 40 6 22 15 40 20 40 4 0 14 18 21 41
8 23 20 43 27 46 7 3 13 11 13 19 0 8 9 19 20 26 11 7 20 19 20 26 0 7 8 16
18 19 9 4 23 13 31 21 16 16 83 10 89 -8z m551 -169 c4 -5 35 -17 71 -27 36
-9 67 -21 70 -25 3 -3 31 -12 63 -19 31 -7 57 -16 57 -20 0 -4 21 -13 48 -20
26 -8 49 -17 52 -20 3 -4 39 -15 80 -25 41 -10 81 -24 88 -32 7 -7 22 -13 33
-13 10 0 19 -5 19 -10 0 -15 -64 -80 -79 -80 -6 0 -11 -7 -11 -15 0 -8 -5 -15
-11 -15 -6 0 -17 -6 -25 -14 -8 -8 -14 -19 -14 -25 0 -6 -7 -11 -15 -11 -8 0
-15 -8 -15 -17 0 -15 -2 -16 -10 -3 -8 13 -10 12 -10 -2 0 -10 -7 -18 -15 -18
-8 0 -15 -4 -15 -10 0 -5 -7 -10 -15 -10 -8 0 -15 -7 -15 -15 0 -8 -4 -15 -10
-15 -5 0 -10 -6 -10 -14 0 -7 -9 -16 -21 -19 -11 -3 -23 -15 -26 -26 -3 -12
-11 -21 -18 -21 -7 0 -23 -11 -36 -25 -13 -13 -30 -25 -36 -25 -7 0 -13 -7
-13 -15 0 -10 -10 -15 -30 -15 -16 0 -30 4 -30 9 0 5 -20 14 -45 20 -25 6 -45
15 -45 19 0 11 -61 32 -92 32 -15 0 -33 6 -40 13 -7 8 -30 20 -51 26 -20 7
-37 16 -37 20 0 4 -19 14 -42 21 -24 8 -45 17 -48 20 -3 3 -27 14 -55 25 -27
10 -53 23 -57 29 -4 5 -19 11 -35 12 -15 1 -39 2 -52 3 -21 1 -19 6 29 51 29
28 59 50 66 50 8 0 14 3 14 8 0 12 76 89 101 103 23 12 60 45 144 129 48 48
52 50 94 45 25 -3 47 -9 50 -14z m747 -265 c7 -7 40 -19 73 -26 34 -7 61 -16
61 -20 0 -5 18 -11 40 -15 22 -4 46 -13 53 -20 7 -7 39 -18 70 -25 31 -7 57
-17 57 -22 0 -4 6 -8 14 -8 19 0 120 -33 126 -41 3 -4 31 -12 63 -19 31 -7 57
-16 57 -20 0 -4 16 -11 35 -14 39 -8 45 -25 15 -46 -11 -8 -20 -20 -20 -27 0
-7 -7 -13 -15 -13 -8 0 -15 -4 -15 -9 0 -4 -13 -22 -30 -39 -16 -18 -30 -36
-30 -42 0 -5 -7 -10 -15 -10 -8 0 -15 -7 -15 -15 0 -8 -6 -15 -14 -15 -8 0
-18 -9 -21 -21 -4 -11 -18 -25 -31 -31 -13 -6 -24 -17 -24 -25 0 -7 -7 -13
-15 -13 -9 0 -15 -9 -15 -22 0 -19 -2 -20 -10 -8 -7 11 -10 12 -10 2 0 -7 -16
-28 -35 -46 -19 -19 -35 -36 -35 -40 0 -16 -57 -62 -72 -58 -10 2 -18 7 -18
11 0 4 -29 15 -65 26 -36 10 -65 22 -65 26 0 4 -18 10 -40 14 -22 4 -46 13
-53 20 -7 7 -28 16 -45 20 -18 3 -39 13 -47 21 -8 9 -25 16 -37 18 -13 1 -36
8 -51 14 -16 7 -37 12 -48 12 -10 0 -19 5 -19 10 0 6 -20 15 -45 22 -25 7 -45
16 -45 20 0 4 -9 8 -19 8 -11 0 -22 4 -26 10 -3 5 -12 7 -20 3 -9 -3 -15 1
-15 11 0 9 -8 16 -17 16 -10 0 -34 5 -55 10 -29 8 -35 14 -31 30 3 11 12 20
19 20 8 0 14 5 14 10 0 11 12 28 37 53 29 29 44 38 53 32 6 -3 10 3 10 15 0
12 5 18 10 15 11 -7 40 18 40 34 0 6 7 11 15 11 8 0 15 7 15 15 0 8 5 15 11
15 6 0 33 23 60 50 27 28 53 50 59 50 5 0 10 7 10 15 0 9 11 21 25 27 14 6 25
17 25 24 0 26 90 26 116 0z m-1176 -126 c0 -5 -4 -10 -10 -10 -5 0 -10 5 -10
10 0 6 5 10 10 10 6 0 10 -4 10 -10z m-95 -30 c15 -6 33 -16 41 -24 7 -8 32
-17 54 -21 22 -4 40 -11 40 -15 0 -5 15 -14 34 -20 19 -6 37 -16 40 -23 3 -9
8 -8 15 3 6 8 11 10 11 4 0 -6 27 -19 60 -29 33 -10 60 -22 60 -27 0 -4 11 -8
24 -8 14 0 28 -4 31 -10 3 -5 17 -10 31 -10 13 0 24 -4 24 -8 0 -5 12 -15 28
-23 15 -8 33 -20 40 -26 7 -7 22 -13 32 -13 14 0 18 -5 13 -16 -6 -17 -89
-104 -99 -104 -10 0 -34 -28 -34 -39 0 -6 -7 -11 -15 -11 -8 0 -15 -4 -15 -10
0 -12 -77 -90 -89 -90 -9 0 -44 -30 -102 -85 -20 -19 -41 -35 -46 -35 -5 0
-15 -11 -21 -25 -6 -14 -18 -25 -27 -25 -8 0 -15 -5 -15 -11 0 -14 -25 -39
-39 -39 -6 0 -11 -4 -11 -10 0 -5 -5 -10 -11 -10 -14 0 -39 -25 -39 -39 0 -6
-5 -11 -11 -11 -7 0 -21 -10 -32 -22 -13 -16 -21 -19 -24 -10 -3 6 -13 12 -23
12 -25 0 -71 21 -92 43 -10 9 -27 17 -37 17 -11 0 -26 6 -33 14 -8 7 -30 19
-51 27 -20 7 -37 17 -37 21 0 4 -7 8 -15 8 -8 0 -15 5 -15 10 0 6 4 10 8 10 5
0 15 18 22 40 7 22 16 40 20 40 4 0 13 20 19 45 6 25 15 45 20 45 4 0 16 26
27 58 10 31 24 63 31 70 7 7 15 28 19 47 3 19 10 35 14 35 4 0 14 20 21 45 7
25 16 45 20 45 3 0 14 29 24 65 11 36 22 65 26 65 4 0 12 20 18 45 12 47 21
52 66 35z m2083 -131 c24 -5 51 -16 59 -24 8 -8 23 -15 34 -15 10 0 19 -3 19
-6 0 -19 -24 -94 -30 -94 -4 0 -13 -27 -20 -60 -7 -33 -16 -60 -20 -60 -4 0
-15 -36 -25 -80 -10 -44 -21 -80 -25 -80 -3 0 -12 -29 -19 -65 -7 -36 -17 -65
-22 -65 -5 0 -9 -8 -9 -17 0 -38 -14 -46 -59 -32 -22 7 -41 15 -41 19 0 3 -22
12 -50 19 -27 7 -50 16 -50 20 0 5 -29 16 -65 26 -36 9 -65 21 -65 25 0 4 -16
11 -36 14 -35 7 -59 36 -36 44 7 2 12 10 12 18 0 8 7 14 15 14 8 0 15 5 15 10
0 6 6 10 14 10 8 0 17 11 20 25 4 14 11 25 16 25 6 0 10 7 10 15 0 8 7 15 15
15 8 0 15 7 15 15 0 8 5 15 11 15 11 0 39 24 39 34 0 3 20 25 45 50 25 26 45
51 45 56 0 6 7 10 15 10 8 0 15 7 15 15 0 8 7 15 15 15 8 0 15 5 15 10 0 6 13
24 30 41 16 18 27 35 24 40 -7 12 20 11 74 -2z m-1358 -175 c14 -3 27 -10 30
-15 3 -4 17 -10 30 -12 54 -10 85 -21 97 -32 6 -7 32 -19 57 -26 26 -7 46 -16
46 -20 0 -3 18 -11 40 -18 22 -6 40 -17 40 -24 0 -7 4 -6 10 3 7 10 13 11 18
5 4 -6 26 -17 50 -25 23 -7 42 -17 42 -21 0 -4 23 -15 50 -24 28 -9 50 -20 50
-25 0 -4 27 -13 60 -19 33 -7 60 -16 60 -21 0 -4 13 -11 29 -15 35 -8 33 -25
-11 -69 -15 -15 -28 -35 -28 -42 0 -8 -6 -14 -14 -14 -8 0 -17 -8 -21 -19 -3
-10 -21 -27 -40 -37 -20 -10 -41 -31 -48 -46 -6 -16 -18 -28 -24 -28 -7 0 -13
-4 -13 -10 0 -5 -7 -10 -15 -10 -8 0 -15 -7 -15 -15 0 -8 -4 -15 -10 -15 -5 0
-12 -11 -16 -25 -3 -14 -12 -25 -20 -25 -8 0 -14 -7 -14 -15 0 -8 -5 -15 -11
-15 -14 0 -39 -26 -39 -40 0 -7 -6 -10 -14 -7 -9 4 -16 -3 -20 -19 -4 -13 -11
-24 -17 -24 -14 0 -39 -26 -39 -39 0 -6 -7 -11 -15 -11 -8 0 -15 -7 -15 -15 0
-8 -6 -15 -13 -15 -8 0 -22 -16 -33 -35 -10 -19 -24 -35 -30 -35 -7 0 -15 -7
-18 -16 -7 -19 -49 -12 -73 11 -8 8 -21 15 -28 15 -7 0 -20 6 -27 13 -7 8 -46
22 -86 31 -39 10 -72 22 -72 27 0 4 -19 13 -42 20 -24 6 -45 14 -48 18 -3 3
-27 12 -55 19 -27 7 -52 16 -55 21 -3 4 -27 15 -55 26 -27 10 -56 24 -63 31
-7 7 -28 16 -47 20 -19 3 -35 10 -35 15 0 5 -6 9 -12 9 -7 0 -26 11 -42 25
-16 14 -47 30 -68 37 -21 6 -38 13 -38 15 0 8 76 73 86 73 6 0 14 9 17 21 3
11 15 23 26 26 12 3 21 12 21 19 0 8 5 14 10 14 6 0 10 7 10 15 0 8 7 15 15
15 8 0 15 5 15 10 0 6 7 10 15 10 8 0 15 7 15 17 0 9 3 14 6 10 3 -3 21 10 39
29 18 19 38 34 44 34 6 0 11 7 11 15 0 8 7 15 15 15 9 0 21 11 27 25 6 14 17
25 24 25 7 0 18 9 24 19 5 11 19 23 30 26 11 3 20 13 20 21 0 8 7 14 15 14 8
0 15 7 15 15 0 8 4 15 9 15 5 0 23 14 41 30 18 17 36 30 41 30 5 0 9 7 9 15 0
8 7 15 15 15 8 0 15 5 15 11 0 6 8 8 18 5 9 -2 28 -8 42 -12z m1890 -13 c0 -4
27 -14 60 -21 33 -7 60 -16 60 -20 0 -4 28 -15 63 -25 57 -16 76 -28 77 -47 0
-5 -6 -8 -14 -8 -8 0 -18 -15 -22 -32 -4 -18 -9 -27 -11 -20 -7 19 -23 14 -23
-8 0 -11 -4 -20 -10 -20 -5 0 -10 -9 -10 -20 0 -11 -7 -20 -15 -20 -8 0 -15
-9 -15 -20 0 -11 -4 -20 -10 -20 -5 0 -10 -5 -10 -11 0 -6 -7 -17 -15 -25 -8
-9 -15 -12 -15 -8 0 4 -11 -6 -24 -21 -13 -15 -23 -33 -22 -39 2 -6 1 -8 -1
-3 -9 14 -23 7 -23 -13 0 -11 -4 -20 -10 -20 -5 0 -12 -11 -16 -25 -3 -14 -12
-25 -20 -25 -8 0 -14 -6 -14 -14 0 -7 -9 -16 -20 -19 -12 -3 -20 -14 -20 -26
0 -14 -5 -19 -15 -15 -11 4 -15 0 -15 -16 0 -21 -3 -22 -52 -16 -29 4 -55 11
-58 15 -3 5 -21 11 -41 15 -31 5 -36 10 -32 26 3 11 9 20 13 20 4 0 16 27 26
60 11 33 22 60 26 60 3 0 12 16 18 35 6 19 15 35 20 35 5 0 11 14 15 30 4 17
12 36 18 43 7 6 21 38 31 70 11 31 22 57 26 57 4 0 13 20 20 45 7 25 17 45 21
45 5 0 9 7 9 15 0 9 9 15 25 15 14 0 25 -4 25 -9z m300 -200 c0 -5 -6 -12 -12
-15 -10 -5 -10 -7 1 -12 8 -4 9 -9 3 -13 -5 -3 -18 -90 -28 -193 -9 -104 -21
-188 -24 -188 -4 0 -11 -37 -14 -82 -9 -105 -15 -128 -32 -128 -7 0 -16 -11
-20 -25 -3 -14 -10 -25 -15 -25 -5 0 -17 -17 -26 -39 -9 -21 -29 -47 -45 -57
-15 -10 -28 -23 -28 -29 0 -5 -11 -23 -25 -39 -14 -16 -25 -32 -25 -35 0 -3
-14 -22 -30 -41 -16 -19 -30 -40 -30 -46 0 -7 -7 -15 -16 -18 -14 -5 -15 14
-9 181 3 103 9 190 14 193 4 3 11 52 14 110 6 89 10 107 27 119 11 7 20 20 20
27 0 8 5 14 10 14 6 0 10 6 10 13 0 7 9 18 20 25 11 7 20 19 20 27 0 8 7 15
15 15 8 0 17 11 21 25 3 14 10 25 15 25 5 0 9 7 9 15 0 8 4 15 10 15 5 0 12
11 16 25 3 14 12 25 20 25 8 0 14 5 14 10 0 6 6 10 13 10 7 0 19 16 27 35 8
19 17 35 22 35 5 0 14 11 20 25 11 24 38 35 38 16z m-3946 -81 c21 -4 42 -12
45 -17 3 -5 18 -16 34 -26 15 -10 27 -24 27 -32 0 -8 4 -15 8 -15 21 0 37 -90
37 -207 0 -67 -3 -125 -7 -128 -4 -4 -24 -4 -45 -1 l-38 7 3 110 c5 118 -3
152 -45 197 -17 18 -36 26 -72 30 -48 4 -121 -12 -121 -27 0 -4 -11 -13 -24
-19 -25 -11 -54 -32 -88 -64 -10 -10 -21 -18 -24 -18 -10 0 -244 -237 -244
-247 0 -4 -18 -24 -40 -43 -22 -19 -40 -40 -40 -47 0 -6 -8 -18 -18 -25 -11
-7 -25 -24 -32 -38 -7 -14 -19 -29 -26 -33 -8 -4 -14 -14 -14 -22 0 -8 -9 -19
-20 -25 -11 -6 -20 -17 -20 -25 0 -8 -8 -20 -17 -27 -10 -7 -25 -26 -33 -43
-8 -16 -21 -34 -27 -38 -7 -4 -13 -14 -13 -22 0 -8 -6 -18 -13 -22 -7 -4 -21
-27 -31 -50 -11 -24 -22 -43 -26 -43 -3 0 -12 -16 -20 -35 -8 -19 -17 -35 -21
-35 -4 0 -13 -16 -19 -35 -6 -19 -15 -35 -19 -35 -4 0 -15 -25 -26 -55 -10
-30 -22 -55 -26 -55 -5 0 -14 -20 -20 -45 -6 -25 -15 -45 -19 -45 -4 0 -13
-27 -20 -60 -7 -33 -16 -60 -20 -60 -15 0 -34 -145 -34 -255 0 -108 15 -195
34 -195 6 0 10 -7 10 -15 0 -8 9 -20 20 -27 11 -7 20 -19 20 -26 0 -7 8 -16
17 -19 10 -4 24 -15 31 -24 7 -10 28 -21 47 -25 19 -3 35 -10 35 -15 0 -5 23
-9 50 -9 28 0 50 5 50 10 0 6 7 10 15 10 27 0 110 32 118 46 4 8 14 14 20 14
7 0 20 8 29 18 9 9 33 31 54 47 37 30 79 72 162 163 24 26 52 56 63 67 10 12
19 26 19 32 0 7 9 17 20 23 11 6 20 17 20 26 0 8 6 17 14 20 8 3 20 19 26 35
7 16 16 29 20 29 4 0 15 16 26 35 10 19 21 35 24 35 4 0 12 16 20 35 7 19 19
36 27 39 7 3 13 12 13 19 0 8 11 27 25 42 21 25 25 27 31 12 3 -9 12 -17 19
-17 8 0 17 -5 20 -10 7 -12 -15 -80 -27 -80 -4 0 -15 -17 -25 -37 -9 -21 -24
-45 -33 -54 -30 -35 -40 -49 -52 -74 -6 -14 -15 -25 -19 -25 -4 0 -10 -8 -13
-17 -3 -10 -17 -31 -31 -48 -13 -16 -32 -41 -42 -53 -10 -13 -33 -40 -50 -59
-18 -20 -33 -40 -33 -44 0 -8 -24 -33 -82 -85 -12 -12 -36 -36 -51 -53 -16
-17 -34 -31 -40 -31 -7 0 -18 -9 -25 -20 -7 -11 -19 -20 -27 -20 -8 0 -18 -6
-22 -13 -4 -6 -21 -19 -38 -27 -16 -8 -36 -21 -43 -27 -7 -7 -20 -13 -27 -13
-7 0 -21 -8 -31 -17 -14 -14 -35 -17 -106 -17 -50 1 -93 5 -96 10 -4 5 -24 15
-46 23 -21 7 -46 20 -56 30 -9 9 -32 27 -49 40 -17 13 -31 30 -31 37 0 8 -6
17 -14 20 -7 3 -19 23 -26 45 -7 21 -16 39 -20 39 -14 0 -30 107 -30 206 0
107 17 244 30 244 4 0 13 27 20 60 7 33 15 60 19 60 3 0 15 29 26 65 10 36 22
65 26 65 3 0 12 18 19 40 7 22 17 40 21 40 5 0 14 18 20 40 7 22 16 40 20 40
4 0 15 20 26 45 10 25 21 45 24 45 4 0 12 14 19 30 7 17 16 30 19 30 4 0 13
16 21 35 8 19 17 35 21 35 5 0 16 17 26 38 9 20 25 43 35 50 10 7 18 19 18 26
0 8 7 16 15 20 8 3 15 12 15 20 0 9 9 20 20 26 11 6 20 17 20 25 0 8 8 20 18
27 11 7 24 23 30 34 6 12 26 38 44 57 18 20 56 61 83 92 86 96 240 245 252
245 4 0 19 12 32 25 13 14 29 25 37 25 8 0 14 4 14 10 0 5 15 17 33 26 17 9
34 20 37 24 16 25 127 36 194 20z m315 -39 c11 -7 11 -18 1 -62 -7 -30 -16
-56 -21 -59 -4 -3 -15 -39 -23 -80 -9 -40 -20 -76 -25 -79 -5 -3 -14 -33 -20
-65 -6 -33 -15 -62 -20 -65 -5 -4 -15 -34 -22 -69 -7 -34 -16 -62 -20 -62 -3
0 -14 -38 -24 -85 -10 -47 -21 -85 -25 -85 -4 0 -11 -15 -14 -34 -5 -28 -10
-33 -26 -29 -11 3 -20 9 -20 14 0 5 -7 9 -15 9 -8 0 -23 8 -33 18 -10 9 -31
24 -47 32 -17 8 -32 18 -35 21 -3 3 -26 14 -52 24 -27 10 -48 21 -48 25 0 4
-15 14 -32 21 -18 7 -39 19 -46 26 -7 7 -19 13 -25 13 -7 0 -20 8 -29 19 -8
10 -21 20 -27 22 -15 5 -3 39 13 39 6 0 28 18 49 40 20 22 40 40 44 40 8 0 56
43 170 150 23 22 46 40 52 40 5 0 15 8 21 18 8 13 10 -11 8 -93 l-3 -110 30
-3 c16 -2 32 -7 35 -11 8 -12 65 -20 79 -12 29 18 42 227 20 321 -12 54 -2 78
44 102 36 19 65 22 86 9z m2351 -32 c3 -3 22 -12 43 -18 20 -7 37 -16 37 -20
0 -4 18 -14 40 -21 22 -7 40 -17 40 -22 0 -4 10 -8 23 -8 32 0 117 -30 117
-41 0 -5 11 -9 25 -9 14 0 25 -4 25 -9 0 -20 -33 -156 -39 -161 -10 -7 -31
-83 -31 -109 0 -11 -4 -21 -8 -21 -5 0 -15 -25 -22 -55 -7 -30 -16 -55 -21
-55 -4 0 -9 -15 -12 -32 -10 -65 -32 -153 -39 -159 -5 -3 -14 -32 -20 -65 -7
-32 -16 -62 -21 -65 -5 -3 -11 -25 -14 -48 -7 -51 -28 -64 -52 -32 -12 15 -32
24 -62 28 -24 3 -46 9 -49 13 -3 4 -29 15 -57 24 -29 10 -53 21 -53 26 0 4
-20 13 -45 19 -25 6 -45 15 -45 20 0 5 -20 14 -45 20 -25 6 -45 15 -45 19 0 5
-27 17 -60 28 -33 10 -60 22 -60 25 0 3 -18 12 -40 19 -22 7 -40 16 -40 19 0
4 -20 13 -45 20 -25 7 -45 16 -45 20 0 4 -17 13 -37 21 -21 7 -32 15 -25 17 6
3 12 11 12 19 0 8 5 14 10 14 6 0 10 7 10 15 0 8 7 15 15 15 8 0 15 4 15 10 0
5 14 22 30 37 17 14 30 32 30 40 0 7 7 13 15 13 8 0 15 6 15 13 0 6 20 30 45
52 25 22 45 45 45 52 0 7 7 13 15 13 8 0 15 5 15 11 0 6 6 17 14 25 8 8 19 14
25 14 6 0 11 7 11 15 0 8 7 15 15 15 8 0 17 11 21 25 3 13 14 27 24 30 11 3
22 15 25 26 4 10 15 19 26 19 10 0 19 5 19 11 0 6 20 31 45 56 25 24 45 49 45
53 0 5 7 7 15 4 10 -4 15 0 15 14 0 14 8 22 23 24 22 3 77 -11 87 -23z m-2679
-59 c10 -6 19 -15 19 -21 0 -9 -42 -52 -130 -133 -8 -8 -27 -20 -42 -27 -16
-7 -28 -19 -28 -27 0 -7 -8 -16 -18 -19 -10 -2 -26 -17 -37 -34 -11 -16 -28
-32 -38 -35 -10 -3 -38 -26 -63 -50 -25 -24 -49 -44 -54 -44 -9 0 -22 -35 -24
-69 -1 -15 4 -26 15 -28 10 -3 20 -20 25 -41 4 -21 8 -39 9 -42 1 -3 6 -20 10
-37 4 -18 11 -33 16 -33 4 0 14 -19 21 -42 7 -24 18 -49 24 -55 7 -7 15 -31
19 -53 4 -22 10 -40 15 -40 4 0 16 -27 26 -60 10 -33 21 -60 25 -60 4 0 10
-18 14 -40 4 -22 14 -47 22 -56 22 -22 23 -102 2 -115 -9 -5 -20 -20 -23 -34
-4 -14 -11 -25 -16 -25 -5 0 -17 -17 -26 -37 -10 -21 -24 -42 -31 -46 -7 -4
-13 -14 -13 -22 0 -8 -9 -19 -20 -25 -11 -6 -20 -17 -20 -26 0 -8 -7 -17 -15
-20 -8 -3 -17 -15 -20 -25 -4 -11 -17 -32 -30 -47 -13 -15 -34 -39 -47 -55
-44 -52 -213 -227 -221 -227 -4 0 -16 -8 -26 -17 -34 -31 -45 -38 -81 -53 -19
-8 -38 -19 -42 -24 -11 -16 -160 -14 -165 2 -3 6 -10 12 -16 12 -9 0 -56 47
-97 97 -6 7 -15 35 -22 63 -6 27 -15 50 -20 50 -4 0 -8 36 -8 80 0 47 4 80 10
80 6 0 10 13 10 29 0 36 21 134 31 141 3 3 12 29 19 58 6 28 15 52 18 52 4 0
16 27 26 60 11 33 23 60 27 60 5 0 14 19 21 43 7 23 20 51 30 61 10 11 18 26
18 33 0 7 4 13 8 13 4 0 14 16 21 35 7 19 18 40 24 47 7 7 19 27 27 43 16 32
26 46 52 75 9 10 25 34 34 52 9 18 23 37 30 41 8 4 14 13 14 19 0 11 8 21 56
71 12 12 27 33 34 47 7 14 21 31 32 38 10 7 18 18 18 23 0 5 18 26 40 46 22
21 40 41 40 45 0 11 186 198 197 198 4 0 22 15 39 33 30 32 56 51 84 64 8 4
17 9 20 13 22 26 115 39 151 20z m685 -64 c3 -8 28 -20 55 -27 27 -7 49 -16
49 -20 0 -4 16 -13 35 -19 19 -6 35 -15 35 -20 0 -5 15 -10 33 -12 24 -2 31
-7 29 -20 -4 -22 -39 -58 -75 -77 -15 -8 -27 -21 -27 -28 0 -7 -7 -16 -15 -19
-8 -4 -15 -12 -15 -19 0 -7 -13 -16 -30 -20 -16 -4 -30 -13 -30 -21 0 -8 -11
-19 -25 -24 -14 -5 -25 -17 -25 -25 0 -9 -8 -19 -17 -22 -18 -7 -41 -28 -222
-203 -51 -50 -102 -95 -113 -101 -21 -11 -40 -3 -22 9 6 4 17 24 25 45 7 20
16 37 19 37 4 0 13 18 20 40 7 22 16 40 20 40 4 0 15 19 26 43 10 23 21 44 25
47 3 3 12 22 20 43 7 20 16 37 21 37 4 0 13 18 19 40 7 22 16 40 20 40 4 0 15
23 25 50 10 28 21 50 24 50 4 0 13 18 20 40 7 22 17 40 21 40 4 0 13 17 20 38
16 49 43 68 55 38z m2684 -135 c0 -5 25 -15 55 -21 36 -7 55 -16 55 -26 0 -8
-7 -14 -16 -14 -11 0 -15 -6 -11 -19 2 -11 -3 -24 -14 -32 -11 -7 -19 -19 -19
-26 0 -7 -6 -10 -14 -7 -11 4 -13 0 -9 -15 4 -17 1 -21 -16 -21 -12 0 -19 -4
-16 -10 3 -5 1 -10 -5 -10 -7 0 -10 -7 -6 -15 4 -10 -1 -15 -14 -15 -13 0 -20
-7 -20 -20 0 -11 -6 -20 -14 -20 -8 0 -18 -9 -21 -20 -3 -11 -11 -20 -16 -20
-5 0 -9 -8 -9 -18 0 -9 -9 -23 -20 -30 -11 -7 -20 -19 -20 -27 0 -8 -7 -15
-15 -15 -8 0 -15 -4 -15 -10 0 -5 -7 -10 -15 -10 -9 0 -18 -13 -22 -31 -4 -22
-8 -27 -14 -17 -6 9 -9 4 -9 -14 0 -16 -4 -28 -10 -28 -5 0 -10 -7 -10 -16 0
-8 -4 -12 -10 -9 -5 3 -10 -3 -10 -14 0 -12 -7 -21 -15 -21 -8 0 -15 -4 -15
-10 0 -5 -6 -10 -14 -10 -8 0 -16 -6 -19 -12 -2 -7 -7 -10 -10 -7 -8 7 15 69
25 69 4 0 8 6 8 13 0 7 8 22 19 33 10 11 24 37 30 57 7 20 16 37 20 37 4 0 16
25 26 55 11 30 22 55 26 55 4 0 12 14 18 30 5 17 14 30 19 30 5 0 15 18 22 40
7 22 16 40 20 40 3 0 14 23 24 50 10 28 22 50 26 50 5 0 11 14 15 30 5 23 12
30 31 30 13 0 24 -4 24 -9z m-2304 -46 c9 -8 28 -15 44 -15 16 0 35 -6 43 -14
7 -8 38 -22 68 -32 30 -11 56 -22 59 -25 3 -4 24 -12 48 -19 23 -7 42 -16 42
-20 0 -3 17 -12 38 -19 20 -8 39 -17 42 -20 6 -9 107 -41 126 -41 8 0 14 -4
14 -8 0 -4 20 -13 45 -20 25 -7 45 -16 45 -21 0 -5 20 -15 45 -22 25 -7 45
-17 45 -21 0 -4 13 -8 29 -8 34 0 48 -15 28 -27 -8 -4 -18 -21 -24 -37 -14
-45 -29 -42 -42 7 -6 25 -18 47 -26 51 -16 6 -135 -22 -145 -34 -3 -3 -24 -12
-47 -20 -24 -7 -43 -16 -43 -19 0 -4 -20 -13 -45 -20 -25 -7 -45 -16 -45 -20
0 -4 -22 -15 -50 -25 -27 -10 -50 -22 -50 -26 0 -5 -8 -11 -19 -15 -10 -3 -28
-13 -40 -23 -12 -9 -33 -26 -47 -37 -47 -35 -81 -69 -93 -92 -6 -13 -18 -23
-26 -23 -8 0 -19 -8 -24 -18 -5 -10 -22 -24 -38 -32 -15 -8 -34 -23 -41 -32
-7 -10 -20 -18 -28 -18 -8 0 -14 -4 -14 -10 0 -5 -17 -17 -37 -27 -21 -9 -42
-22 -46 -27 -6 -8 -10 -7 -13 1 -3 6 -32 19 -65 29 -32 10 -59 22 -59 26 0 5
-11 13 -25 18 -32 12 -32 25 2 47 44 28 63 46 63 60 0 7 8 17 18 22 10 5 24
25 32 45 7 20 17 36 22 36 4 0 8 25 8 55 0 30 -4 55 -10 55 -5 0 -10 6 -10 14
0 12 -27 44 -66 75 -9 8 -40 15 -69 15 l-52 1 104 103 c56 57 103 107 103 112
0 5 9 12 20 15 11 3 20 11 20 16 0 5 8 9 18 9 9 1 35 20 57 44 43 47 84 59
111 31z m2469 -177 c-8 -147 -13 -178 -30 -178 -7 0 -15 6 -17 12 -3 8 -27 13
-68 13 -41 0 -65 -5 -68 -13 -4 -14 -42 -17 -42 -3 0 21 13 41 26 41 8 0 14 6
14 14 0 8 14 27 30 43 17 15 30 33 30 40 0 7 9 17 20 23 11 6 20 17 20 25 0 8
7 15 15 15 8 0 15 6 15 13 0 7 9 19 20 27 11 8 20 20 20 27 0 7 5 13 11 13 7
0 8 -37 4 -112z m306 -202 c-6 -35 -11 -77 -11 -94 0 -18 -4 -32 -10 -32 -5 0
-10 -22 -10 -50 0 -78 -19 -149 -43 -161 -11 -7 -30 -20 -41 -30 -11 -11 -26
-19 -33 -19 -7 0 -13 -4 -13 -10 0 -5 -15 -17 -32 -26 -18 -9 -35 -20 -38 -24
-3 -4 -20 -12 -39 -18 l-34 -12 8 93 c5 63 11 95 21 100 8 4 14 13 14 19 0 6
7 18 15 27 8 9 23 26 34 38 11 12 27 36 36 52 8 17 20 31 25 31 6 0 10 6 10
13 0 7 9 19 20 27 11 8 20 20 20 27 0 6 8 18 18 25 9 7 26 30 37 51 11 20 25
37 32 37 7 0 14 8 14 18 1 15 2 15 6 -1 3 -10 0 -47 -6 -81z m-4092 53 c17 -6
31 -14 31 -18 0 -4 18 -13 40 -20 22 -6 40 -15 40 -20 0 -4 16 -13 35 -21 19
-8 35 -17 35 -20 0 -4 19 -15 43 -26 23 -10 44 -22 47 -26 3 -4 18 -11 33 -17
17 -7 27 -18 27 -31 0 -30 -23 -110 -32 -110 -4 0 -8 -8 -8 -17 0 -25 -33
-157 -41 -163 -4 -3 -10 -20 -14 -37 -3 -18 -11 -33 -17 -33 -23 0 -66 59 -78
108 -8 28 -17 52 -21 52 -4 0 -12 20 -18 45 -6 25 -15 45 -19 45 -4 0 -13 18
-20 41 -7 23 -19 48 -27 56 -8 8 -15 27 -15 43 0 16 -4 32 -10 35 -5 3 -10 15
-10 26 0 10 -4 19 -10 19 -5 0 -14 19 -21 43 -6 23 -16 45 -23 49 -17 12 16
10 53 -3z m2309 -82 c6 0 12 -6 12 -12 0 -7 26 -20 58 -30 31 -10 59 -21 62
-24 3 -4 17 -12 33 -18 25 -12 38 -33 19 -33 -5 0 -30 -20 -55 -45 -26 -25
-51 -45 -55 -45 -4 0 -19 -12 -33 -27 -35 -38 -81 -73 -96 -73 -7 0 -17 -9
-23 -20 -6 -11 -17 -20 -25 -20 -7 0 -20 -6 -27 -13 -12 -13 -79 -40 -84 -35
-5 6 18 123 25 128 4 3 14 29 21 58 6 28 15 52 19 52 4 0 13 18 20 40 6 22 16
40 21 40 6 0 10 4 10 9 0 5 7 25 16 46 14 33 18 36 42 30 15 -4 33 -8 40 -8z
m-351 -102 c-7 -14 -18 -25 -24 -25 -7 0 -13 -5 -13 -11 0 -6 -20 -30 -45 -53
-25 -24 -45 -49 -45 -55 0 -6 -7 -11 -15 -11 -8 0 -15 -5 -15 -11 0 -13 -25
-39 -38 -39 -5 0 -13 -11 -16 -25 -4 -14 -13 -25 -21 -25 -8 0 -15 -5 -15 -11
0 -14 -25 -39 -39 -39 -6 0 -11 -7 -11 -15 0 -8 -7 -15 -15 -15 -8 0 -19 -9
-25 -20 -13 -23 -73 -36 -104 -22 -13 6 -27 23 -31 39 -3 15 -12 31 -18 35 -8
6 -9 10 -1 16 5 4 16 22 23 40 8 17 16 32 20 32 3 0 24 16 46 35 58 52 62 54
90 65 14 5 25 14 25 19 0 5 27 17 60 27 33 10 60 21 60 24 0 4 19 13 43 20 23
8 44 17 47 20 4 5 63 26 82 29 3 1 1 -10 -5 -24z m2753 19 c0 -13 -36 -70 -52
-82 -10 -7 -18 -17 -18 -22 0 -13 -196 -220 -253 -266 -66 -54 -151 -41 -172
27 -7 21 12 109 24 109 3 0 20 13 38 28 65 56 76 64 107 75 17 6 36 16 41 22
6 6 29 18 53 25 23 7 42 16 42 20 0 4 19 13 43 20 23 8 44 17 47 21 3 3 23 11
45 17 51 13 55 13 55 6z m-2139 -66 c3 -4 17 -9 32 -10 15 -1 27 -5 27 -9 0
-4 12 -10 27 -14 15 -3 31 -11 34 -17 4 -6 24 -12 45 -15 65 -7 51 -13 -29
-13 -73 0 -77 1 -114 35 -21 19 -41 35 -44 35 -4 0 -9 7 -12 14 -4 11 -1 13
11 9 9 -4 20 -10 23 -15z m-2060 -108 c8 0 1 -11 -45 -63 l-18 -22 7 25 c4 14
12 27 16 28 5 2 9 16 9 31 0 34 14 51 18 22 2 -12 8 -21 13 -21z m3187 -52
c-7 -13 -21 -29 -30 -36 -10 -7 -18 -19 -18 -27 0 -8 -9 -19 -20 -25 -11 -6
-20 -17 -20 -26 0 -8 -6 -17 -14 -20 -8 -3 -19 -18 -26 -33 -16 -39 -44 -49
-107 -38 -60 10 -66 19 -23 37 17 7 30 16 30 20 0 4 14 13 30 20 17 7 30 16
30 20 0 4 8 10 18 14 24 8 56 29 65 44 4 6 13 12 18 12 6 0 24 14 41 30 35 36
43 38 26 8z m-701 -88 c-5 -27 -13 -50 -17 -50 -5 0 -11 -19 -15 -42 -10 -65
-15 -78 -31 -78 -8 0 -14 -8 -14 -17 0 -14 -2 -15 -9 -5 -4 7 -40 19 -80 25
-67 12 -70 13 -50 27 24 17 57 45 123 107 25 23 54 44 65 48 10 3 22 12 25 20
11 30 13 14 3 -35z m-497 31 c0 -11 86 -31 130 -31 36 0 40 -24 8 -41 -12 -7
-36 -27 -54 -45 -17 -19 -35 -34 -40 -34 -5 0 -22 -14 -38 -30 -16 -17 -33
-30 -38 -30 -5 0 -23 -16 -41 -35 -17 -19 -36 -35 -40 -35 -5 0 -26 -18 -47
-40 -21 -22 -42 -40 -47 -40 -4 0 -23 -16 -42 -35 -31 -32 -33 -39 -28 -81 6
-57 14 -65 70 -71 36 -4 49 -1 65 15 11 11 36 25 56 32 20 6 36 15 36 19 0 4
25 16 55 26 30 11 55 22 55 25 0 4 24 12 53 20 28 7 54 16 57 20 3 5 31 11 63
15 47 6 57 5 57 -8 0 -8 -9 -17 -20 -20 -12 -3 -20 -14 -20 -27 0 -11 -4 -18
-10 -15 -5 3 -10 1 -10 -5 0 -14 -46 -60 -60 -60 -5 0 -10 -8 -10 -19 0 -10
-9 -21 -20 -24 -12 -3 -20 -14 -20 -26 0 -12 -4 -21 -10 -21 -5 0 -10 -6 -10
-14 0 -8 -9 -18 -20 -21 -11 -3 -20 -15 -20 -26 0 -10 -6 -19 -14 -19 -7 0
-16 -9 -19 -20 -3 -11 -12 -20 -21 -20 -9 0 -16 -8 -16 -20 0 -11 -4 -20 -10
-20 -5 0 -10 -6 -10 -14 0 -26 -50 -35 -72 -13 -7 7 -29 19 -48 27 -19 8 -39
19 -45 26 -5 6 -27 17 -47 24 -21 6 -38 15 -38 19 0 4 -18 14 -40 21 -22 7
-40 17 -40 22 0 5 -11 13 -25 18 -14 5 -25 16 -25 24 0 8 -15 17 -35 20 -19 4
-35 11 -35 15 0 5 -20 16 -44 25 -24 9 -47 24 -50 31 -3 8 -12 15 -20 15 -8 0
-21 6 -28 13 -7 6 -37 20 -66 30 -29 10 -62 26 -72 35 -36 33 -47 40 -83 53
-20 7 -37 17 -37 21 0 4 -7 8 -15 8 -22 0 -75 29 -75 40 0 6 17 10 38 10 47 0
111 18 129 36 8 8 21 14 28 14 8 0 19 9 25 20 6 11 17 20 25 20 7 0 26 14 42
31 15 17 46 49 68 71 36 36 40 38 43 19 2 -12 8 -21 13 -21 5 0 9 -8 9 -17 1
-61 102 -96 208 -73 34 7 62 16 62 20 0 5 14 13 30 19 17 5 30 14 30 20 0 5
14 12 30 16 17 4 35 15 40 26 6 10 17 19 26 19 8 0 17 7 20 15 4 8 21 22 40
31 19 9 34 20 34 25 0 5 7 9 15 9 8 0 15 -4 15 -9z m1236 -33 c-3 -13 -6 -38
-6 -55 0 -26 -4 -33 -20 -33 -11 0 -20 -4 -20 -9 0 -9 -69 -25 -77 -18 -2 3 4
13 15 23 10 11 25 34 33 52 8 18 22 35 31 38 10 3 18 10 18 15 0 5 7 9 16 9
12 0 15 -6 10 -22z m-2850 -4 c13 -3 24 -10 24 -14 0 -4 20 -13 44 -20 42 -12
71 -40 41 -40 -7 0 -20 -6 -28 -14 -29 -30 -212 -43 -273 -19 -19 7 -18 33 1
33 7 0 18 6 22 13 4 6 22 19 38 27 17 8 32 18 35 21 12 14 46 28 58 24 8 -3
25 -8 38 -11z m463 -136 c9 -11 22 -26 29 -33 16 -18 15 -25 -3 -25 -8 0 -15
7 -15 15 0 9 -11 20 -25 25 -14 5 -25 14 -25 20 0 5 -7 10 -15 10 -8 0 -15 5
-15 10 0 6 7 10 15 10 8 0 15 6 15 13 0 6 6 4 12 -7 6 -10 18 -28 27 -38z
m2645 -87 c-3 -39 -11 -71 -15 -71 -5 0 -9 -17 -9 -37 0 -52 -10 -83 -25 -83
-7 0 -18 -12 -23 -27 -11 -31 -44 -75 -79 -106 -13 -12 -23 -24 -23 -29 0 -4
-9 -17 -20 -28 -11 -11 -20 -28 -20 -39 0 -10 -11 -26 -24 -34 l-23 -16 3 42
c2 23 6 77 10 120 3 42 9 77 13 77 4 0 16 16 27 35 10 19 22 35 27 35 4 0 12
11 17 25 5 14 14 25 20 25 5 0 10 6 10 14 0 8 8 21 18 28 17 13 35 39 49 67 3
8 14 22 22 32 9 10 22 25 30 34 20 25 23 13 15 -64z m-2749 35 c15 -13 34 -22
42 -19 7 3 13 -1 13 -10 0 -9 15 -20 35 -27 19 -6 35 -15 35 -19 0 -4 15 -11
33 -16 24 -8 32 -16 34 -35 5 -59 27 -175 35 -181 9 -6 21 -78 20 -112 -1 -10
6 -21 14 -24 13 -5 13 -7 2 -14 -11 -7 -10 -11 2 -19 13 -9 13 -10 0 -10 -12
-1 -12 -2 2 -10 10 -7 18 -30 23 -70 4 -33 11 -60 16 -60 5 0 9 -11 9 -25 0
-14 -5 -25 -10 -25 -10 0 -50 20 -60 30 -3 3 -23 14 -45 25 -22 11 -42 22 -45
25 -3 3 -18 12 -35 20 -16 8 -36 21 -43 28 -7 6 -20 12 -27 12 -8 0 -18 6 -22
13 -4 7 -24 19 -43 27 -19 7 -39 18 -45 25 -5 6 -25 17 -42 24 -18 7 -33 17
-33 21 0 5 -16 14 -35 20 -19 6 -35 15 -35 20 0 5 -16 14 -35 21 -19 7 -35 16
-35 19 0 3 -20 14 -45 25 -25 11 -45 23 -45 26 0 3 -15 11 -32 18 -28 11 -36
22 -52 71 -10 33 -22 60 -26 62 -5 2 -10 12 -12 22 -3 17 4 20 52 22 94 5 160
15 160 24 0 4 18 11 40 15 22 4 46 12 53 19 7 7 29 19 50 25 20 7 37 16 37 21
0 9 22 17 51 19 9 0 29 -10 44 -23z m-717 -6 c7 -11 18 -20 26 -20 8 0 16 -7
19 -14 3 -8 21 -18 40 -21 18 -4 38 -15 44 -25 18 -27 27 -90 14 -90 -6 0 -11
4 -11 8 0 4 -16 14 -35 21 -19 7 -35 16 -35 20 0 4 -19 16 -42 27 -24 10 -47
24 -51 31 -4 7 -15 13 -22 13 -8 0 -15 7 -15 15 0 8 4 15 9 15 5 0 13 9 16 20
3 11 12 20 18 20 7 0 18 -9 25 -20z m2740 0 c7 -11 18 -20 26 -20 8 0 16 -6
19 -14 3 -8 20 -17 38 -21 51 -11 63 -29 43 -60 -9 -14 -20 -25 -25 -25 -5 0
-9 -6 -9 -13 0 -7 -9 -19 -20 -27 -11 -8 -20 -19 -20 -24 0 -5 -8 -16 -18 -25
-9 -9 -26 -33 -37 -53 -11 -21 -23 -38 -27 -38 -5 0 -14 -11 -20 -25 -6 -14
-15 -25 -20 -25 -4 0 -8 72 -8 160 0 88 4 160 8 160 4 0 14 16 21 35 14 39 30
44 49 15z m602 -13 c0 -2 -8 -14 -17 -26 -27 -33 -52 -64 -68 -86 -13 -19 -14
-17 -15 27 0 43 3 48 25 54 14 3 25 10 25 14 0 5 10 11 23 13 12 2 23 5 25 6
1 0 2 -1 2 -2z m-164 -114 c-3 -27 -7 -66 -8 -88 -1 -24 -10 -49 -22 -62 -39
-42 -55 -62 -67 -84 -12 -24 -23 -38 -50 -68 -8 -10 -19 -24 -22 -32 -14 -28
-32 -54 -49 -67 -10 -7 -18 -20 -18 -28 0 -8 -4 -14 -8 -14 -17 0 -48 -36 -66
-77 -11 -24 -23 -43 -28 -43 -5 0 -13 -11 -18 -25 -5 -14 -16 -25 -25 -25 -8
0 -15 -4 -15 -8 0 -5 -9 -19 -20 -32 -11 -13 -20 -29 -20 -36 0 -8 -9 -19 -20
-26 -11 -7 -20 -17 -20 -23 0 -5 -10 -22 -23 -36 l-22 -26 4 226 c2 124 6 228
10 231 3 3 12 17 20 33 8 15 18 27 22 27 5 0 16 17 26 38 9 20 25 43 35 50 10
7 18 20 18 28 0 8 7 14 15 14 8 0 15 4 15 9 0 8 32 48 70 87 11 12 20 26 20
33 0 6 6 11 13 11 7 0 17 10 22 22 9 20 19 23 94 25 47 2 87 6 90 8 2 3 15 5
29 5 23 0 24 -2 18 -47z m-3250 13 c3 -8 20 -20 37 -27 33 -14 44 -21 77 -51
11 -10 43 -25 72 -34 29 -10 60 -26 69 -36 9 -10 21 -18 27 -18 6 0 13 -18 17
-40 4 -22 11 -40 15 -40 5 0 14 -25 21 -56 7 -31 18 -61 24 -68 7 -6 17 -35
24 -63 7 -28 20 -54 28 -57 9 -4 13 -9 10 -12 -7 -7 13 -77 23 -84 15 -9 23
-60 11 -60 -19 0 -71 30 -71 40 0 6 -7 10 -15 10 -17 0 -52 18 -73 38 -7 6
-17 12 -22 12 -5 0 -15 6 -22 13 -20 18 -50 37 -70 43 -10 4 -18 10 -18 14 0
4 -10 10 -23 14 -13 3 -36 17 -51 31 -15 14 -36 25 -47 25 -10 0 -19 4 -19 8
0 5 -18 17 -39 27 -31 14 -40 24 -46 51 -3 19 -9 34 -14 34 -4 0 -13 23 -20
50 -7 28 -16 50 -21 50 -17 0 -17 40 1 61 10 12 19 28 19 35 0 7 6 17 13 21 6
4 20 25 29 46 18 37 44 49 54 23z m1129 -67 c22 -8 47 -22 56 -31 9 -10 26
-18 38 -18 12 0 24 -6 27 -14 3 -7 23 -19 45 -26 21 -7 39 -16 39 -20 0 -4 8
-10 18 -14 17 -5 52 -26 62 -36 3 -3 23 -11 45 -19 67 -24 69 -38 14 -93 -27
-27 -49 -55 -49 -63 0 -8 -6 -18 -13 -22 -7 -4 -21 -30 -32 -58 -10 -27 -21
-52 -25 -55 -10 -7 -31 -131 -24 -141 7 -12 -3 -11 -43 3 -18 7 -33 16 -33 21
0 4 -12 12 -27 18 -22 7 -29 16 -30 41 -1 17 -6 34 -11 37 -5 3 -12 24 -16 46
-4 22 -10 54 -13 70 -3 17 -8 32 -12 35 -5 3 -11 25 -14 50 -4 25 -9 56 -12
70 -3 14 -7 41 -10 60 -2 19 -9 36 -15 38 -5 2 -10 18 -11 35 -1 18 -4 43 -8
57 -8 27 -2 67 8 52 3 -5 24 -15 46 -23z m1552 -121 c-5 -160 -10 -188 -33
-188 -8 0 -14 -6 -14 -13 0 -8 -11 -27 -25 -43 -14 -16 -25 -33 -25 -38 0 -4
-11 -17 -25 -28 -14 -11 -25 -24 -25 -29 0 -5 -8 -17 -17 -27 -10 -11 -27 -31
-37 -46 -11 -15 -30 -39 -43 -54 -13 -15 -23 -32 -23 -39 0 -7 -9 -17 -20 -23
-11 -6 -20 -17 -20 -25 0 -8 -9 -19 -20 -25 -11 -6 -20 -17 -20 -25 0 -8 -6
-18 -14 -22 -7 -4 -20 -21 -29 -38 -8 -16 -25 -37 -36 -45 -12 -8 -21 -20 -21
-27 0 -7 -4 -13 -10 -13 -5 0 -10 -6 -10 -14 0 -8 -9 -18 -20 -21 -11 -3 -20
-13 -20 -21 0 -8 -4 -14 -10 -14 -5 0 -12 -10 -15 -22 -5 -20 -44 -48 -65 -48
-4 0 -10 69 -14 153 -4 83 -11 154 -16 155 -6 2 -10 28 -10 59 0 45 4 58 23
74 12 10 26 18 30 19 4 0 34 27 65 60 32 33 63 60 70 60 7 0 16 8 19 17 4 10
31 42 60 71 29 30 53 57 53 61 0 4 10 16 23 27 19 17 25 18 35 7 7 -7 27 -13
45 -13 38 0 68 29 88 83 7 20 17 37 22 37 4 0 13 14 18 30 6 17 14 30 18 30 4
0 13 16 21 35 8 19 17 35 21 35 4 0 11 9 14 20 14 45 17 13 12 -132z m-2241
-68 c8 0 14 -4 14 -9 0 -5 14 -12 30 -16 17 -4 30 -12 30 -19 0 -6 17 -18 37
-25 21 -8 43 -20 51 -27 7 -8 20 -14 28 -14 8 0 14 -4 14 -10 0 -5 7 -10 15
-10 8 0 15 -4 15 -10 0 -5 19 -15 43 -22 42 -12 52 -18 86 -49 10 -9 39 -24
65 -34 25 -10 46 -23 46 -30 0 -7 12 -16 26 -19 15 -4 33 -14 41 -21 8 -8 23
-15 33 -15 10 0 20 -7 22 -17 2 -9 20 -21 43 -27 35 -10 40 -16 43 -44 2 -18
10 -36 18 -39 17 -6 19 -43 2 -43 -8 0 -6 -4 3 -10 11 -7 19 -31 24 -75 3 -36
10 -65 14 -65 4 0 14 -36 21 -80 7 -44 17 -80 21 -80 3 0 9 -11 11 -25 3 -14
1 -25 -4 -25 -10 0 -48 21 -65 37 -7 6 -22 15 -33 18 -11 3 -20 10 -20 14 0 4
-20 15 -45 25 -25 11 -45 23 -45 27 0 4 -16 13 -35 20 -19 7 -35 17 -35 22 0
4 -13 13 -30 18 -16 6 -30 15 -30 19 0 5 -20 16 -45 26 -25 9 -45 20 -45 24 0
4 -13 13 -30 20 -16 7 -30 16 -30 20 0 5 -13 13 -30 19 -16 5 -30 14 -30 19 0
5 -18 15 -39 22 -37 12 -61 41 -61 75 0 8 -7 15 -15 15 -8 0 -15 9 -15 19 0
11 -6 26 -14 33 -7 8 -20 41 -27 74 -7 32 -19 65 -25 72 -7 7 -16 33 -20 58
-3 25 -12 48 -19 50 -7 3 -16 25 -20 50 -3 24 -13 50 -21 58 -10 11 -11 15 -1
19 6 2 14 0 15 -4 2 -5 10 -9 18 -9z m2794 -30 c0 -16 -4 -30 -10 -30 -5 0
-10 -24 -10 -54 0 -74 -17 -159 -35 -172 -8 -6 -15 -16 -15 -22 0 -6 -8 -17
-17 -24 -10 -7 -25 -26 -33 -43 -8 -16 -21 -34 -27 -38 -7 -4 -13 -14 -13 -22
0 -8 -11 -22 -25 -31 -14 -9 -25 -23 -25 -30 0 -8 -7 -17 -15 -20 -8 -4 -15
-12 -15 -18 0 -7 -9 -21 -19 -33 -10 -11 -26 -34 -35 -51 -9 -18 -21 -32 -26
-32 -6 0 -10 -6 -10 -14 0 -7 -13 -27 -30 -44 -16 -18 -30 -36 -30 -42 0 -5
-4 -10 -9 -10 -5 0 -14 -13 -21 -30 -7 -16 -22 -40 -34 -54 -11 -13 -29 -34
-38 -47 -17 -22 -18 -19 -18 109 0 121 2 132 20 142 11 6 20 17 20 25 0 8 9
19 20 25 11 6 20 16 20 23 0 7 11 25 25 41 14 16 25 32 25 36 0 4 11 20 25 36
34 38 38 44 61 79 10 17 24 34 31 38 7 4 13 14 13 22 0 8 9 19 20 25 11 6 20
17 20 25 0 8 9 19 20 25 11 6 20 16 20 23 0 7 11 26 25 42 13 17 32 41 42 54
10 13 26 32 36 42 9 11 17 22 17 25 0 9 35 53 43 54 4 0 7 -13 7 -30z m-1633
-42 c15 -7 34 -20 40 -29 7 -9 28 -20 48 -23 19 -4 35 -10 35 -14 0 -5 17 -14
38 -21 20 -8 43 -22 50 -32 7 -11 19 -19 27 -19 7 0 15 -4 17 -8 2 -5 23 -16
48 -24 l44 -14 -23 -20 c-12 -10 -32 -27 -43 -36 -11 -10 -29 -20 -39 -23 -11
-4 -19 -10 -19 -14 0 -4 -19 -16 -42 -27 -24 -10 -49 -24 -56 -31 -7 -7 -28
-15 -47 -19 -19 -3 -35 -10 -35 -14 0 -11 -94 -23 -119 -15 -16 5 -21 15 -21
41 0 45 20 124 31 124 5 0 9 6 9 13 0 6 11 25 25 41 13 16 27 36 30 46 3 10
12 21 20 24 25 9 17 37 -21 72 -39 37 -39 40 3 22z m-1557 -148 c3 -3 22 -14
43 -23 20 -10 37 -21 37 -25 0 -5 17 -14 38 -21 20 -8 43 -22 50 -32 7 -11 20
-19 28 -19 8 0 14 -4 14 -8 0 -5 18 -15 40 -22 23 -8 44 -19 48 -25 4 -6 21
-17 39 -24 17 -7 34 -18 36 -25 3 -7 23 -18 45 -25 38 -13 62 -42 62 -76 0 -8
4 -15 9 -15 8 0 13 -19 27 -89 1 -8 6 -17 11 -20 10 -7 43 -100 43 -120 0 -12
-2 -12 -12 1 -7 8 -28 22 -45 29 -18 8 -33 17 -33 20 0 4 -13 12 -30 19 -16 7
-30 16 -30 19 0 4 -16 13 -35 21 -19 8 -35 17 -35 22 0 4 -16 14 -35 22 -19 8
-35 19 -35 25 0 5 -16 15 -35 22 -19 7 -35 17 -35 21 0 4 -6 8 -12 8 -7 0 -26
11 -42 25 -16 13 -38 27 -49 31 -33 10 -64 51 -76 99 -6 25 -15 45 -19 45 -5
0 -14 23 -22 52 -7 29 -19 58 -26 66 -8 7 -14 22 -14 33 0 17 3 18 23 8 12 -7
24 -15 27 -19z m2626 -162 c-3 -101 -5 -202 -5 -225 -1 -30 -5 -43 -15 -43 -8
0 -17 -13 -21 -30 -4 -16 -13 -30 -21 -30 -7 0 -16 -11 -20 -25 -3 -14 -12
-25 -20 -25 -7 0 -19 -18 -25 -40 -7 -22 -18 -40 -25 -40 -8 0 -16 -11 -20
-25 -3 -14 -12 -25 -19 -25 -8 0 -17 -9 -20 -21 -4 -12 -13 -28 -21 -37 -53
-62 -64 -76 -69 -93 -4 -11 -11 -19 -16 -19 -5 0 -14 -11 -19 -25 -5 -14 -14
-25 -20 -25 -6 0 -16 -13 -21 -30 -6 -16 -17 -30 -24 -30 -7 0 -16 -14 -20
-31 -4 -17 -13 -33 -21 -36 -8 -3 -14 -12 -14 -20 0 -8 -9 -17 -20 -20 -11 -3
-20 -14 -20 -24 0 -11 -7 -19 -16 -19 -10 0 -14 6 -10 15 3 8 -1 20 -8 27 -15
16 -27 115 -29 256 -2 84 1 106 14 115 8 7 18 19 22 27 13 29 32 55 50 68 9 7
17 17 17 22 0 6 13 22 28 37 16 16 37 44 48 63 10 19 27 41 37 48 9 7 17 20
17 28 0 8 7 14 15 14 8 0 17 11 21 25 3 14 12 25 19 25 7 0 16 11 19 25 4 14
13 25 21 25 8 0 15 6 15 14 0 8 8 21 18 28 9 7 24 27 32 43 8 17 23 36 33 43
9 7 17 20 17 28 0 8 7 17 15 20 8 3 17 14 20 24 3 10 17 31 31 46 13 16 29 35
35 42 5 6 12 12 14 12 3 0 3 -82 1 -182z m-680 -199 c4 -68 10 -126 14 -129 4
-3 11 -34 14 -70 4 -36 3 -60 -1 -53 -5 6 -21 15 -36 18 -15 4 -31 13 -35 19
-4 7 -23 18 -42 26 -19 7 -39 18 -45 25 -5 6 -26 17 -45 25 -19 8 -39 20 -43
27 -4 7 -14 13 -22 13 -7 0 -20 7 -29 15 -8 9 -30 22 -48 30 -19 8 -25 14 -15
15 9 0 17 4 17 9 0 5 18 12 40 16 22 4 46 13 53 19 7 7 29 19 50 27 20 7 37
17 37 21 0 4 6 8 13 8 7 0 22 8 33 19 20 18 77 51 81 47 1 -1 5 -58 9 -127z
m-696 84 c0 -7 15 -15 33 -18 21 -4 40 -17 52 -36 11 -16 35 -35 53 -41 17 -7
32 -15 32 -19 0 -4 17 -10 37 -14 20 -4 44 -15 53 -25 9 -10 35 -23 58 -29 25
-7 42 -18 42 -26 0 -9 15 -17 40 -21 22 -4 40 -10 40 -15 0 -5 6 -9 13 -9 6 0
27 -13 45 -29 18 -17 48 -33 65 -37 18 -4 39 -14 47 -24 8 -9 26 -21 39 -25
14 -4 29 -12 35 -17 6 -5 19 -14 28 -21 15 -10 20 -38 29 -147 6 -74 15 -137
19 -140 4 -3 11 -42 15 -87 7 -90 2 -99 -37 -63 -12 11 -28 20 -35 20 -7 0
-13 4 -13 8 0 4 -20 16 -44 26 -25 10 -47 24 -50 31 -2 7 -18 16 -34 20 -17 3
-33 13 -36 21 -3 8 -12 14 -20 14 -9 0 -23 8 -33 19 -10 10 -35 24 -55 30 -21
7 -38 16 -38 21 0 5 -16 14 -35 21 -19 7 -35 17 -35 21 0 5 -11 13 -25 18 -14
5 -25 13 -25 18 0 5 -18 15 -40 22 -22 7 -40 17 -40 22 0 4 -18 15 -40 24 -22
9 -40 20 -40 24 0 4 -13 13 -30 19 -16 5 -30 17 -30 25 0 8 -8 20 -17 26 -14
9 -15 12 -4 17 11 5 11 7 0 14 -11 7 -11 9 -1 9 10 0 10 3 -1 15 -9 8 -19 44
-22 80 -4 36 -11 65 -15 65 -4 0 -11 21 -16 48 -4 26 -8 49 -9 52 0 3 -4 23
-9 45 -4 22 -13 43 -18 46 -7 5 -6 12 3 21 10 12 19 12 41 4 15 -6 28 -16 28
-23z m-652 -83 c7 -11 21 -20 32 -20 11 0 20 -4 20 -9 0 -5 8 -11 18 -15 18
-6 54 -27 62 -37 3 -4 15 -9 28 -13 12 -4 22 -13 22 -20 0 -7 18 -19 40 -26
22 -7 40 -17 40 -22 0 -4 6 -8 14 -8 7 0 19 -7 26 -15 7 -8 21 -15 31 -15 11
0 19 -4 19 -10 0 -5 6 -10 14 -10 8 0 21 -8 28 -18 7 -11 30 -25 51 -31 21 -7
41 -19 44 -27 3 -7 20 -19 39 -26 19 -6 34 -15 34 -19 0 -4 9 -9 20 -12 21 -5
40 -44 40 -82 0 -13 5 -25 10 -27 6 -2 13 -21 15 -43 10 -82 17 -115 26 -115
5 0 9 -7 9 -15 0 -8 -4 -15 -10 -15 -5 0 -10 4 -10 10 0 5 -11 12 -25 16 -14
3 -29 12 -33 18 -4 7 -25 20 -46 30 -40 19 -52 27 -86 58 -11 10 -31 20 -46
24 -14 4 -28 13 -31 20 -3 8 -11 14 -17 14 -7 0 -21 8 -32 18 -10 10 -36 26
-56 35 -21 10 -38 21 -38 25 0 5 -16 14 -35 21 -19 7 -35 16 -35 21 0 4 -13
13 -30 19 -16 5 -30 14 -30 20 0 5 -9 12 -19 16 -13 4 -22 19 -26 45 -4 22
-10 40 -15 40 -4 0 -14 23 -21 50 -7 28 -16 50 -21 50 -4 0 -8 11 -8 24 0 14
-4 28 -10 31 -5 3 -10 15 -10 26 0 10 -4 19 -10 19 -5 0 -10 5 -10 10 0 17 14
11 28 -10z m2026 -211 c3 -17 6 -71 6 -120 0 -77 -3 -92 -20 -106 -11 -10 -20
-23 -20 -30 0 -7 -9 -17 -20 -23 -11 -6 -20 -17 -20 -25 0 -8 -6 -18 -13 -22
-8 -4 -17 -15 -20 -23 -12 -27 -32 -55 -44 -63 -7 -4 -13 -13 -13 -19 0 -6 -7
-18 -15 -27 -37 -41 -51 -60 -69 -91 -10 -18 -26 -41 -35 -51 -31 -34 -41 -48
-53 -74 -6 -14 -15 -25 -19 -25 -5 0 -16 -14 -25 -32 -9 -17 -25 -40 -35 -51
-10 -12 -19 -26 -19 -31 0 -6 -9 -17 -20 -24 -11 -7 -20 -19 -20 -27 0 -8 -4
-15 -10 -15 -5 0 -11 19 -11 43 -3 96 -8 161 -13 174 -3 8 -1 23 5 34 10 19
19 30 64 80 8 9 15 21 15 28 0 6 7 14 15 17 8 4 23 23 32 43 9 20 25 42 35 49
10 7 18 19 18 25 0 7 9 18 20 25 11 7 20 19 20 27 0 8 4 15 10 15 5 0 17 15
26 33 9 17 23 36 30 40 8 4 14 14 14 22 0 8 9 19 20 25 11 6 20 17 20 25 0 8
9 19 20 25 11 6 20 16 20 23 0 7 10 24 23 39 12 14 30 36 40 48 10 12 23 32
29 46 15 32 24 30 32 -7z m-1274 -253 c0 -7 18 -18 40 -25 22 -6 40 -16 40
-21 0 -6 6 -10 14 -10 8 0 21 -9 29 -20 7 -10 34 -25 59 -31 30 -8 48 -19 51
-31 3 -10 14 -18 25 -18 10 0 32 -11 48 -25 16 -14 32 -25 37 -25 4 0 16 -9
27 -20 11 -11 27 -20 35 -20 8 0 15 -6 15 -13 0 -14 58 -39 72 -31 5 3 12 -3
15 -15 3 -14 13 -21 29 -21 13 0 24 -4 24 -10 0 -5 7 -10 15 -10 8 0 15 -4 15
-10 0 -5 5 -10 11 -10 7 0 19 -8 28 -19 9 -10 25 -20 35 -22 15 -3 20 -15 23
-49 2 -25 9 -46 14 -48 14 -5 11 -72 -3 -72 -9 0 -8 -3 2 -10 20 -12 23 -80 4
-80 -8 0 -14 4 -14 8 0 5 -20 17 -45 28 -25 10 -45 21 -45 25 0 4 -13 12 -30
19 -16 7 -30 16 -30 20 0 4 -15 13 -32 21 -18 7 -37 19 -41 26 -4 7 -14 13
-22 13 -8 0 -18 6 -22 13 -4 6 -26 21 -48 32 -22 11 -42 22 -45 25 -3 3 -18
12 -35 20 -16 8 -37 23 -47 33 -10 9 -24 17 -32 17 -8 0 -16 6 -19 14 -3 8
-20 17 -37 21 -17 4 -34 13 -36 20 -3 7 -19 19 -35 25 -16 7 -29 16 -29 21 0
5 -6 9 -12 9 -35 1 -46 27 -62 140 -20 140 -20 141 -1 134 8 -4 15 -12 15 -18z"/>
<path d="M2446 4796 c-9 -14 -16 -30 -16 -36 0 -5 -4 -10 -9 -10 -5 0 -14 -13
-21 -30 -7 -16 -16 -30 -20 -30 -4 0 -13 -18 -20 -40 -7 -22 -16 -40 -19 -40
-4 0 -16 -29 -26 -65 -11 -36 -23 -65 -26 -65 -4 0 -13 -20 -20 -45 -7 -25
-16 -45 -19 -45 -4 0 -12 -22 -19 -50 -7 -27 -16 -50 -20 -50 -4 0 -16 -34
-26 -75 -11 -41 -22 -75 -25 -75 -4 0 -12 -25 -19 -55 -7 -30 -16 -55 -21 -55
-5 0 -14 -27 -21 -60 -6 -33 -15 -60 -19 -60 -4 0 -15 -36 -25 -80 -10 -44
-21 -80 -25 -80 -4 0 -12 -25 -19 -55 -7 -30 -16 -55 -21 -55 -4 0 -14 -29
-21 -65 -7 -36 -16 -65 -19 -65 -4 0 -15 -36 -25 -80 -10 -44 -21 -80 -25 -80
-3 0 -12 -29 -19 -65 -7 -36 -17 -65 -22 -65 -5 0 -9 -7 -9 -15 0 -29 17 -14
29 25 6 22 15 40 20 40 4 0 16 25 26 55 11 30 22 55 26 55 4 0 13 16 19 35 6
19 15 35 19 35 4 0 13 18 20 40 6 22 15 40 20 40 4 0 16 25 26 55 11 30 23 55
27 55 4 0 13 20 19 45 6 25 15 45 19 45 5 0 14 16 20 35 6 19 15 35 19 35 4 0
15 27 24 60 10 33 21 60 26 60 5 0 14 20 20 45 6 25 15 45 20 45 5 0 14 20 20
45 6 25 15 45 20 45 4 0 14 25 21 56 8 31 19 62 25 68 7 6 18 35 25 64 8 29
17 52 20 52 4 0 12 24 19 54 7 30 16 56 21 58 5 2 17 44 27 93 10 50 21 93 26
96 5 3 9 43 10 89 2 90 -9 109 -37 66z m-8 -151 c-5 -33 -12 -62 -17 -65 -4
-3 -14 -33 -21 -67 -7 -35 -16 -63 -20 -63 -5 0 -13 -22 -20 -50 -7 -27 -16
-50 -21 -50 -5 0 -9 -5 -9 -12 0 -23 -35 -128 -42 -128 -4 0 -8 -6 -8 -12 0
-16 -63 -78 -79 -78 -13 0 -5 40 9 50 4 3 13 31 20 63 7 31 17 57 21 57 5 0
14 20 20 45 6 25 14 45 18 45 4 0 15 29 26 65 10 36 21 65 24 65 4 0 13 20 20
45 7 25 17 45 21 45 5 0 14 16 20 36 11 32 40 78 46 71 1 -1 -2 -29 -8 -62z
m-214 -600 c-4 -8 -9 -15 -13 -15 -4 0 -15 -27 -24 -60 -10 -33 -21 -60 -26
-60 -5 0 -14 -20 -20 -45 -6 -25 -15 -45 -20 -45 -4 0 -14 -18 -21 -40 -7 -22
-17 -40 -21 -40 -4 0 -9 -6 -12 -12 -2 -7 -2 1 1 17 2 17 8 32 12 35 4 3 13
30 20 60 7 30 17 58 22 61 5 3 12 23 15 45 4 27 18 50 45 77 41 40 50 45 42
22z m-167 -367 c-3 -8 -6 -5 -6 6 -1 11 2 17 5 13 3 -3 4 -12 1 -19z"/>
<path d="M5195 4803 c-10 -9 -22 -29 -27 -45 -6 -15 -13 -28 -18 -28 -4 0 -14
-15 -21 -32 -7 -18 -19 -39 -26 -46 -7 -7 -15 -28 -19 -47 -3 -19 -10 -35 -15
-35 -5 0 -16 -26 -25 -57 -9 -31 -22 -63 -29 -70 -7 -7 -16 -31 -20 -53 -4
-22 -10 -40 -15 -40 -4 0 -14 -22 -21 -50 -7 -27 -16 -50 -20 -50 -4 0 -15
-33 -24 -72 -10 -40 -21 -75 -25 -78 -3 -3 -12 -26 -20 -52 -7 -27 -16 -48
-19 -48 -4 0 -13 -29 -20 -65 -7 -36 -16 -65 -20 -65 -4 0 -16 -36 -26 -80
-10 -44 -21 -80 -25 -80 -4 0 -13 -25 -20 -55 -7 -30 -16 -55 -20 -55 -4 0
-13 -29 -20 -65 -7 -36 -16 -65 -19 -65 -4 0 -16 -37 -26 -82 -10 -46 -22 -85
-25 -88 -9 -7 -32 -101 -26 -107 2 -2 7 9 11 26 4 17 10 31 15 31 4 0 16 23
26 50 10 28 21 50 24 50 4 0 13 18 20 40 7 22 17 40 21 40 5 0 14 18 20 40 7
22 16 40 20 40 4 0 15 23 25 50 10 28 21 50 25 50 4 0 13 20 20 45 7 25 16 45
20 45 3 0 12 18 19 40 7 22 17 40 21 40 5 0 16 26 25 57 9 31 23 63 30 70 7 8
16 29 20 48 3 19 10 35 15 35 4 0 14 19 21 43 7 23 17 47 23 53 6 7 17 37 25
68 7 31 17 56 21 56 5 0 14 20 20 45 6 25 15 45 19 45 4 0 13 27 20 60 7 33
16 60 21 60 4 0 15 35 25 78 10 42 21 79 24 82 9 7 30 140 30 189 0 47 -12 58
-35 34z m-9 -115 c-3 -13 -10 -53 -17 -90 -7 -38 -16 -68 -19 -68 -4 0 -12
-25 -19 -55 -7 -30 -16 -55 -20 -55 -4 0 -14 -25 -21 -55 -7 -30 -16 -55 -20
-55 -3 0 -14 -29 -25 -65 -10 -36 -21 -65 -25 -65 -4 0 -10 -12 -13 -27 -9
-38 -27 -62 -34 -45 -2 6 -13 12 -24 12 -10 0 -19 5 -19 10 0 6 4 10 9 10 5 0
15 25 22 55 7 30 15 55 19 55 3 0 13 23 20 50 7 28 17 50 20 50 4 0 15 29 25
65 11 36 22 65 26 65 4 0 12 20 18 45 6 25 15 45 20 45 4 0 14 18 21 40 7 22
16 40 19 40 4 0 12 14 18 30 13 35 25 40 19 8z m-232 -662 c-4 -11 -10 -23
-14 -26 -4 -3 -15 -31 -25 -62 -10 -32 -22 -58 -26 -58 -5 0 -14 -20 -20 -45
-6 -25 -15 -45 -20 -45 -4 0 -14 -18 -20 -40 -12 -39 -29 -54 -29 -25 0 8 4
15 9 15 4 0 14 27 21 60 7 33 16 60 20 60 4 0 13 25 20 55 7 30 16 55 20 55 4
0 11 17 15 37 9 49 11 52 35 46 16 -4 19 -11 14 -27z"/>
<path d="M2136 2855 c-8 -8 -19 -15 -24 -15 -6 0 -23 -14 -39 -31 -15 -17 -39
-41 -51 -53 -57 -51 -82 -77 -82 -84 0 -7 -36 -54 -71 -91 -15 -17 -32 -51
-25 -51 2 0 13 9 26 20 13 11 29 20 36 20 7 0 17 6 21 13 4 6 25 20 46 29 20
10 37 22 37 28 0 5 6 10 14 10 7 0 32 17 53 38 22 20 53 44 68 52 15 8 35 29
43 47 9 18 19 33 24 33 4 0 8 9 8 19 0 32 -57 43 -84 16z m-26 -86 c-25 -22
-52 -46 -61 -54 -37 -34 -27 -11 13 30 24 24 49 45 56 45 7 0 15 7 19 15 3 9
8 13 11 10 3 -3 -14 -24 -38 -46z"/>
<path d="M4888 2863 c-10 -2 -18 -9 -18 -14 0 -5 -5 -9 -11 -9 -11 0 -169
-152 -169 -163 0 -3 -9 -16 -20 -29 -57 -66 -70 -84 -70 -95 0 -7 -5 -13 -12
-13 -6 0 -8 -3 -4 -7 4 -5 13 -1 19 7 7 8 24 21 40 27 15 7 27 17 27 22 0 5
13 12 30 16 16 4 36 14 42 23 7 9 26 24 42 32 39 20 126 97 159 141 35 47 6
79 -55 62z m12 -48 c0 -9 -84 -85 -94 -85 -5 0 -15 -8 -22 -17 -7 -10 -14 -15
-14 -11 0 12 73 84 93 91 9 3 17 11 17 17 0 5 5 10 10 10 6 0 10 -2 10 -5z"/>
</g>
</svg>
