<svg width="154" height="150" viewBox="0 0 154 150" fill="none" xmlns="http://www.w3.org/2000/svg">
<g clip-path="url(#clip0)">
<path d="M153.835 74.9432V75.1708C153.8 89.9899 149.264 104.467 140.799 116.774C132.335 129.082 120.321 138.668 106.273 144.324C92.2263 149.979 76.7759 151.45 61.8723 148.551C46.9686 145.651 33.2799 138.512 22.5337 128.033C11.7876 117.554 4.46581 104.206 1.49247 89.6736C-1.48088 75.1409 0.0275224 60.0751 5.82728 46.3776C11.627 32.6801 21.4582 20.965 34.0798 12.7109C46.7015 4.45684 61.5479 0.0337778 76.7452 0H76.9787C78.9244 0 80.6561 2.54447e-07 82.5045 0.208703C85.5023 0.412598 88.4847 0.792748 91.4354 1.34708C95.0331 2.01549 98.5769 2.93488 102.04 4.09816C112.724 8.28776 122.434 14.5301 130.594 22.4538C138.753 30.3775 145.194 39.8207 149.535 50.2214C150.787 53.6794 151.769 57.2248 152.473 60.8273C153.041 63.7365 153.431 66.6762 153.64 69.6307C153.835 71.3952 153.835 73.1787 153.835 74.9432Z" fill="#F27B1D"/>
<path d="M131.273 37C132.741 38.8898 134.111 40.8938 135.375 43" stroke="white" stroke-width="6.24" stroke-linecap="round" stroke-linejoin="round"/>
<path d="M100.507 12C108.609 15.19 116.242 20.2651 123.069 27" stroke="white" stroke-width="6.24" stroke-linecap="round" stroke-linejoin="round"/>
<path d="M77.4332 70C74.0865 70 70.8149 69.0323 68.0323 67.2193C65.2496 65.4062 63.0808 62.8293 61.8 59.8143C60.5193 56.7993 60.1842 53.4817 60.8371 50.281C61.49 47.0803 63.1016 44.1403 65.4681 41.8327C67.8346 39.5252 70.8496 37.9537 74.132 37.3171C77.4144 36.6804 80.8167 37.0071 83.9086 38.256C87.0006 39.5048 89.6433 41.6197 91.5026 44.3331C93.3619 47.0465 94.3543 50.2366 94.3543 53.5C94.3495 57.8746 92.5652 62.0687 89.3929 65.1621C86.2206 68.2554 81.9195 69.9953 77.4332 70ZM77.4332 45.0011C75.7093 45.0011 74.0242 45.4995 72.5909 46.4334C71.1576 47.3673 70.0404 48.6946 69.3808 50.2476C68.7211 51.8006 68.5485 53.5094 68.8848 55.1581C69.2211 56.8067 70.0512 58.3211 71.2701 59.5097C72.489 60.6982 74.0421 61.5077 75.7328 61.8356C77.4235 62.1636 79.176 61.9952 80.7686 61.352C82.3612 60.7087 83.7224 59.6194 84.6801 58.2218C85.6378 56.8241 86.149 55.1809 86.149 53.5C86.1442 51.2474 85.2244 49.0884 83.5909 47.4956C81.9574 45.9027 79.7433 45.0058 77.4332 45.0011Z" fill="white"/>
<path d="M101.836 71.4531C101.491 70.8929 101.033 70.4023 100.486 70.0094C99.9394 69.6165 99.3157 69.329 98.6507 69.1635C97.9857 68.998 97.2925 68.9576 96.6109 69.0448C95.9293 69.132 95.2728 69.3449 94.6789 69.6715C89.3211 72.9127 83.1065 74.6796 76.7372 74.7724C70.3901 74.5824 64.2057 72.837 58.7956 69.709C57.5906 69.1644 56.2101 69.0734 54.9362 69.4546C53.6623 69.8357 52.5913 70.6602 51.9421 71.7595C51.2929 72.8588 51.1145 74.1498 51.4435 75.3687C51.7726 76.5875 52.584 77.6421 53.7121 78.3169C56.682 79.8951 59.7899 81.2315 63.0019 82.3114C64.4367 82.7774 65.8412 83.3222 67.2082 83.9429L68.9226 84.7493L56.4233 98.9645C55.5784 99.8546 55.1115 101.006 55.1115 102.199C55.1115 103.393 55.5784 104.544 56.4233 105.434C56.9083 105.945 57.5065 106.35 58.1757 106.62C58.8449 106.89 59.5689 107.019 60.2967 106.998C61.0245 106.976 61.7385 106.805 62.3884 106.496C63.0383 106.187 63.6084 105.748 64.0585 105.209L76.5977 90.9567L89.1568 105.209C89.9855 106.145 91.1688 106.741 92.4562 106.871C93.7437 107 95.0341 106.653 96.0544 105.903C97.0978 105.052 97.7416 103.847 97.8462 102.551C97.9507 101.255 97.5074 99.9733 96.6126 98.9832L84.0136 84.5805L84.5518 84.3367C85.8411 83.7889 87.1742 83.3374 88.5389 82.9865C92.5656 81.8222 96.4279 80.2039 100.041 78.1668C101.197 77.4999 102.033 76.438 102.374 75.2038C102.558 74.5768 102.605 73.9212 102.512 73.2766C102.42 72.6321 102.19 72.0117 101.836 71.4531Z" fill="white"/>
</g>
<defs>
<clipPath id="clip0">
<rect width="153.829" height="150" fill="white" transform="translate(0.00598145)"/>
</clipPath>
</defs>
</svg>
