<svg width="48" height="52" viewBox="0 0 48 52" fill="none" xmlns="http://www.w3.org/2000/svg">
<path d="M31 26H34V7.58332C34 5.7884 32.6569 4.33332 31 4.33332H13C11.3431 4.33332 10 5.7884 10 7.58332V26H13V25.2035C13 23.3008 13.9215 21.5376 15.4275 20.5587L17.3675 19.2978C16.5131 18.1747 16 16.7356 16 15.1667C16 11.5768 18.6863 8.66666 22 8.66666C25.3137 8.66666 28 11.5768 28 15.1667C28 16.7356 27.4869 18.1747 26.6325 19.2978L28.5725 20.5587C30.0785 21.5376 31 23.3008 31 25.2035V26ZM29 26V25.2035C29 24.0619 28.4471 23.004 27.5435 22.4166L25.0263 20.7805C24.1379 21.3438 23.1037 21.6667 22 21.6667C20.8963 21.6667 19.8621 21.3438 18.9737 20.7805L16.4565 22.4166C15.5529 23.004 15 24.0619 15 25.2035V26H29ZM34 28.1667H10V40.0833C10 41.8782 11.3431 43.3333 13 43.3333H31C32.6569 43.3333 34 41.8782 34 40.0833V28.1667ZM35.9162 6.59073C38.2401 7.05696 40 9.26415 40 11.9167V44.4167C40 47.4082 37.7614 49.8333 35 49.8333H17C14.5515 49.8333 12.5141 47.9267 12.0838 45.4092C9.75992 44.943 8 42.7358 8 40.0833V7.58332C8 4.59178 10.2386 2.16666 13 2.16666H31C33.4485 2.16666 35.4859 4.07324 35.9162 6.59073ZM14.1707 45.5C14.5825 46.7623 15.6938 47.6667 17 47.6667H35C36.6569 47.6667 38 46.2116 38 44.4167V11.9167C38 10.5016 37.1652 9.29774 36 8.85159V40.0833C36 43.0749 33.7614 45.5 31 45.5H14.1707ZM22 19.5C24.2091 19.5 26 17.5599 26 15.1667C26 12.7734 24.2091 10.8333 22 10.8333C19.7909 10.8333 18 12.7734 18 15.1667C18 17.5599 19.7909 19.5 22 19.5ZM15 34.6667C14.4477 34.6667 14 34.1816 14 33.5833C14 32.985 14.4477 32.5 15 32.5H29C29.5523 32.5 30 32.985 30 33.5833C30 34.1816 29.5523 34.6667 29 34.6667H15ZM15 39C14.4477 39 14 38.515 14 37.9167C14 37.3183 14.4477 36.8333 15 36.8333H25C25.5523 36.8333 26 37.3183 26 37.9167C26 38.515 25.5523 39 25 39H15Z" fill="black"/>
</svg>
