<svg width="40" height="40" viewBox="0 0 40 40" fill="none" xmlns="http://www.w3.org/2000/svg">
<path d="M20 0C8.955 0 0 8.95437 0 20C0 31.0456 8.955 40 20 40C31.045 40 40 31.0456 40 20C40 8.95437 31.0456 0 20 0ZM20 38.75C9.645 38.75 1.25 30.355 1.25 20.0006C1.25 9.645 9.645 1.25 20 1.25C30.355 1.25 38.75 9.645 38.75 20.0006C38.75 30.355 30.355 38.75 20 38.75Z" fill="#786F71" fill-opacity="0.5"/>
<path d="M28.5713 27.0981L25.0013 23.5275C25.7838 22.4475 26.25 21.1238 26.25 19.6875C26.25 16.0631 23.3125 13.125 19.6875 13.125C16.0638 13.125 13.125 16.0631 13.125 19.6875C13.125 23.3119 16.0638 26.25 19.6875 26.25C21.4431 26.25 23.0338 25.5569 24.2113 24.4338L27.7231 27.9463C27.9575 28.1806 28.3363 28.1806 28.5706 27.9463C28.8056 27.7125 28.8056 27.3325 28.5713 27.0981ZM19.6875 25C16.7538 25 14.375 22.6206 14.375 19.6875C14.375 16.7538 16.7538 14.375 19.6875 14.375C22.6206 14.375 25 16.7538 25 19.6875C25 22.6206 22.6219 25 19.6875 25Z" fill="#786F71" fill-opacity="0.5"/>
</svg>
