<svg width="150" height="150" viewBox="0 0 150 150" fill="none" xmlns="http://www.w3.org/2000/svg">
<g clip-path="url(#clip0)">
<path d="M75 0C33.5786 0 0 33.5786 0 75C0 116.421 33.5786 150 75 150C116.421 150 150 116.421 150 75C150 33.5786 116.421 0 75 0ZM114.95 100.459H105.433C104.402 100.46 103.384 100.229 102.455 99.7826C101.526 99.3363 100.71 98.6862 100.066 97.8809C97.2123 94.2976 91.5897 87.9439 85.686 85.2149C85.3441 85.0549 84.9673 84.9836 84.5906 85.0077C84.2138 85.0318 83.8492 85.1505 83.5304 85.3528C83.2116 85.5551 82.949 85.8345 82.7668 86.1652C82.5846 86.4958 82.4887 86.8671 82.488 87.2446V96.6571C82.4881 97.1564 82.3899 97.6507 82.1989 98.112C82.0079 98.5732 81.728 98.9923 81.375 99.3454C81.0221 99.6984 80.603 99.9785 80.1418 100.17C79.6806 100.361 79.1862 100.459 78.687 100.459H74.2863C68.5635 100.459 56.2395 96.9753 46.4194 82.6702C38.0522 70.4827 34.3225 61.0374 32.1475 53.3792C32.021 52.9304 32.0003 52.4583 32.087 52.0001C32.1736 51.5419 32.3653 51.11 32.647 50.7384C32.9286 50.3667 33.2926 50.0654 33.7102 49.8581C34.1279 49.6507 34.588 49.543 35.0543 49.5434H44.6818C45.6423 49.5425 46.5775 49.8518 47.3481 50.4251C48.1188 50.9984 48.6838 51.8051 48.9592 52.7253C50.7495 58.7133 55.3866 71.6306 63.5833 78.063C63.8332 78.26 64.1335 78.3827 64.4499 78.417C64.7663 78.4514 65.0859 78.396 65.3723 78.2573C65.6587 78.1185 65.9003 77.902 66.0694 77.6324C66.2385 77.3629 66.3284 77.0511 66.3287 76.7329V61.655C66.3287 58.6752 65.0373 55.6939 63.0217 53.364C62.7312 53.0298 62.543 52.6191 62.4795 52.181C62.416 51.7428 62.4799 51.2956 62.6635 50.8927C62.8471 50.4898 63.1428 50.1483 63.5151 49.9088C63.8875 49.6692 64.3209 49.5419 64.7637 49.5419H79.6072C80.3716 49.5419 81.1047 49.8455 81.6452 50.386C82.1857 50.9264 82.4894 51.6595 82.4894 52.4238V72.7339C82.4895 73.0279 82.5704 73.3162 82.7234 73.5673C82.8764 73.8183 83.0956 74.0225 83.3568 74.1573C83.6181 74.2921 83.9115 74.3524 84.2047 74.3316C84.498 74.3108 84.7799 74.2097 85.0195 74.0394C87.7441 72.0999 90.0776 69.2347 92.2239 66.0141C94.9251 61.9629 98.2213 55.2662 99.8748 51.7907C100.195 51.1174 100.699 50.5487 101.33 50.1505C101.96 49.7523 102.69 49.541 103.436 49.541H113.936C114.374 49.5408 114.805 49.6526 115.188 49.8658C115.572 50.0789 115.894 50.3864 116.125 50.7591C116.356 51.1317 116.488 51.5572 116.508 51.9952C116.529 52.4332 116.437 52.8691 116.242 53.2617C113.592 58.5762 108.432 68.3256 103.576 74.0455C102.88 74.8681 102.54 75.9329 102.629 77.0062C102.718 78.0794 103.23 79.0735 104.051 79.7701C107.217 82.4748 112.158 87.4752 117.486 95.804C117.78 96.2599 117.946 96.7865 117.966 97.3286C117.986 97.8706 117.86 98.4081 117.6 98.8844C117.341 99.3607 116.957 99.7583 116.491 100.035C116.025 100.312 115.493 100.459 114.95 100.459Z" fill="url(#paint0_linear)"/>
<path d="M130 37C131.431 38.8898 132.767 40.8938 134 43" stroke="white" stroke-width="6.24" stroke-linecap="round" stroke-linejoin="round"/>
<path d="M100 12C107.9 15.19 115.343 20.2651 122 27" stroke="white" stroke-width="6.24" stroke-linecap="round" stroke-linejoin="round"/>
</g>
<defs>
<linearGradient id="paint0_linear" x1="1.08955" y1="148.91" x2="137.95" y2="12.0504" gradientUnits="userSpaceOnUse">
<stop stop-color="#025BC7"/>
<stop offset="1" stop-color="#0089FD"/>
</linearGradient>
<clipPath id="clip0">
<rect width="150" height="150" fill="white"/>
</clipPath>
</defs>
</svg>
