<?xml version="1.0" encoding="iso-8859-1"?>

    <svg version="1.1" width="1000" height="1000"
         viewBox="0 0 384.375 384.375" id="Capa_1" xmlns="http://www.w3.org/2000/svg" x="0px" y="0px"
         style="enable-background:new 0 0 54.224 54.224;" xml:space="preserve">

    <defs id="SvgjsDefs1550">
    </defs>
    <g id="SvgjsG1551"
       transform="matrix(3.8056930693069306,0,0,3.8056930693069306,0,0)"
       fill="#602b38">
        <path xmlns="http://www.w3.org/2000/svg"
              d="M100.5 101h-6a.5.5 0 0 1 0-1h6a.5.5 0 0 1 0 1zm-10 0h-6a.5.5 0 0 1 0-1h6a.5.5 0 0 1 0 1zm-10 0h-6a.5.5 0 0 1 0-1h6a.5.5 0 0
               1 0 1zm-10 0h-6a.5.5 0 0 1 0-1h6a.5.5 0 0 1 0 1zm-10 0h-6a.5.5 0 0 1 0-1h6a.5.5 0 0 1 0 1zm-10 0h-6a.5.5 0 0 1 0-1h6a.5.5 0 0
                1 0 1zm-10 0h-6a.5.5 0 0 1 0-1h6a.5.5 0 0 1 0 1zm-10 0h-6a.5.5 0 0 1 0-1h6a.5.5 0 0 1 0 1zm-10 0h-6a.5.5 0 0 1 0-1h6a.5.5 0 0
                 1 0 1zm-10 0h-6a.5.5 0 0 1 0-1h6a.5.5 0 0 1 0 1zm-10 0a.5.5 0 0 1-.5-.5v-6a.5.5 0 0 1 1 0v6a.5.5 0 0 1-.5.5zm100-4a.5.5 0 0
                  1-.5-.5v-6a.5.5 0 0 1 1 0v6a.5.5 0 0 1-.5.5zM.5 91a.5.5 0 0 1-.5-.5v-6a.5.5 0 0 1 1 0v6a.5.5 0 0 1-.5.5zm100-4a.5.5 0 0 1-.5-.5v-6a.5.5 0 0 1
                  1 0v6a.5.5 0 0 1-.5.5zM.5 81a.5.5 0 0 1-.5-.5v-6a.5.5 0 0 1 1 0v6a.5.5 0 0 1-.5.5zm100-4a.5.5 0 0 1-.5-.5v-6a.5.5 0 0 1 1 0v6a.5.5 0 0 1-.5.5zM.5
                   71a.5.5 0 0 1-.5-.5v-6a.5.5 0 0 1 1 0v6a.5.5 0 0 1-.5.5zm100-4a.5.5 0 0 1-.5-.5v-6a.5.5 0 0 1 1 0v6a.5.5 0 0 1-.5.5zM.5 61a.5.5 0 0 1-.5-.5v-6a.5.5
                    0 0 1 1 0v6a.5.5 0 0 1-.5.5zm100-4a.5.5 0 0 1-.5-.5v-6a.5.5 0 0 1 1 0v6a.5.5 0 0 1-.5.5zM.5 51a.5.5 0 0 1-.5-.5v-6a.5.5 0 0 1 1 0v6a.5.5 0 0 1-.5.5zm100-4a.5.5
                    0 0 1-.5-.5v-6a.5.5 0 0 1 1 0v6a.5.5 0 0 1-.5.5zM.5 41a.5.5 0 0 1-.5-.5v-6a.5.5 0 0 1 1 0v6a.5.5 0 0 1-.5.5zm100-4a.5.5 0 0 1-.5-.5v-6a.5.5 0 0 1 1 0v6a.5.5 0
                    0 1-.5.5zM.5 31a.5.5 0 0 1-.5-.5v-6a.5.5 0 0 1 1 0v6a.5.5 0 0 1-.5.5zm100-4a.5.5 0 0 1-.5-.5v-6a.5.5 0 0 1 1 0v6a.5.5 0 0 1-.5.5zM.5 21a.5.5 0 0 1-.5-.5v-6a.5.5
                     0 0 1 1 0v6a.5.5 0 0 1-.5.5zm100-4a.5.5 0 0 1-.5-.5v-6a.5.5 0 0 1 1 0v6a.5.5 0 0 1-.5.5zM.5 11a.5.5 0 0 1-.5-.5v-6a.5.5 0 0 1 1 0v6a.5.5 0 0 1-.5.5zm100-4a.5.5
                      0 0 1-.5-.5v-6a.5.5 0 0 1 1 0v6a.5.5 0 0 1-.5.5zm-4-6h-6a.5.5 0 0 1 0-1h6a.5.5 0 0 1 0 1zm-10 0h-6a.5.5 0 0 1 0-1h6a.5.5 0 0 1 0 1zm-10 0h-6a.5.5 0 0 1 0-1h6a.5.5
                       0 0 1 0 1zm-10 0h-6a.5.5 0 0 1 0-1h6a.5.5 0 0 1 0 1zm-10 0h-6a.5.5 0 0 1 0-1h6a.5.5 0 0 1 0 1zm-10
                       0h-6a.5.5 0 0 1 0-1h6a.5.5 0 0 1 0 1zm-10 0h-6a.5.5 0 0 1 0-1h6a.5.5 0 0 1 0 1zm-10 0h-6a.5.5
                       0 0 1 0-1h6a.5.5 0 0 1 0 1zm-10 0h-6a.5.5 0 0 1 0-1h6a.5.5 0 0 1 0 1zm-10 0h-6a.5.5 0 0 1
                       0-1h6a.5.5 0 0 1 0 1z">

        </path>
    </g>
    <g id="SvgjsG1552"

       transform="matrix(2.7124817370213856,0,0,2.7124817370213856,96.91525652953221,32.85787315455964)"
       fill="#602b38">
        <path d="M8.36 27.28 c2.4 -1.44 1.4 -5.56 -1 -2.16 c-2.2 3.12 -3.44 12.88 0.16 13.08 c3
        0.2 4.88 -3.48 5.56 -5.96 c0.04 -0.04 1.64 0.32 1.48 0.92 c-0.84 3.12 -2.16 5.64 -5.2 6.68
        c-3.2 1.08 -7.64 -0.2 -8.84 -3.52 c-1.32 -3.72 0.12 -10.96 3.28 -13.6 c0.88 -0.72 2 -1.12 3.48
        -1.08 c2.88 0.04 4.6 2.32 3.68 5.04 c-0.76 2.2 -3.16 0.92 -2.6 0.6 z M15.416 26.04 c-1.12 -0.76 -1.6
         -3.04 -1.08 -4.32 c0.92 -2.24 4.68 -1.88 4.36 -0.44 c-0.72 3.44 1.28 4.32 2.12 2.12 c0.52 -1 5.2 0.28
          4.88 2.8 c-0.2 1.56 -2.8 11.08 -0.4 11.48 c0.92 0.16 2.4 -1.56 3.52 -5.4 c0.04 -0.2 0.96 0.4 1.52 0.64
          c-1 3.84 -2.4 5.96 -4.32 6.72 c-2.16 0.88 -4.88 0.12 -5.88 -2.12 c-1.32 -2.84 -0.12 -7.96 0.48 -11.6 c-0.6 0.68 -1.96
          1.12 -3.48 0.8 c-0.24 1.2 -1.04 4.36 -1.84 6.88 c-0.4 1.32 -2.04 0.72 -1.92 0.4 c1 -2.64 1.68 -6.24 2.04 -7.96 z M40.232 22.88 c-0.04 -1.28
           5.32 -0.88 4.96 1.8 c-0.36 2.88 -2.48 9.72 -1.28 12.4 c0.68 1.48 2.72 0.08 4.16 -4.84 c0 -0.04 1.64 0.24 1.44 1.04 c-1 3.6 -2.36 5.56 -4.24
            6.32 c-2.16 0.88 -4.88 0.12 -5.88 -2.12 c-0.2 -0.4 -0.32 -0.92 -0.44 -1.44 c-0.52 1.08 -1.12 2 -1.8 2.72 c-0.36 0.4 -0.76 0.68 -1.2 0.84 c-2.16
             0.88 -4.84 0.12 -5.88 -2.12 c-1.68 -3.68 0.56 -13.16 4.2 -14.96 l0.36 -0.12 c1.16 -0.4 3.64 -0.32 4.96 1.16 c0.2 0.2 0.36 0.44 0.52 0.72 c0.08
             -0.56 0.12 -1 0.12 -1.4 l0 0 z M36.712 36.56 c2 -4.28 2.76 -8.48 2.36 -10.68 c-0.4 -2.28 -1.96 -1.52 -2.76 0.28 c-1.48 3.16 -2.8 8.48 -1.68 10.92
              c0.52 1.24 1.28 0.8 2.08 -0.52 z M58.008 32.24 c0 -0.04 1.6 0.4 1.48 0.8 c-0.52 1.84 -2.32 3.76 -4.64 3.96 c1.52 4.36 -0.08 18.88 -2.88 19.6 c-2.28
              0.64 -4.96 -2.16 -5.2 -4.52 c-0.72 -6.44 3.92 -28.24 4.16 -34.48 c0.04 -1.28 5.72 -0.6 5.44 2.08 c-0.48 4.64 -2.08 10.24 -3.16 14.96 c0.36 0.64 3.68
              1.36 4.8 -2.4 l0 0 z M52.848 36.56 c-0.96 5 -3.12 17.6 -1.72 18.24 c1.88 0.88 3.88 -14.92 1.72 -18.24 z M61.424 13.96 c0.04 -1.28 5.68 -0.64 5.4 2.04
              c-0.16 1.68 -0.76 4.2 -1.36 6.88 c2.16 -0.2 3.88 -0.4 4.16 -0.52 c0.84 -0.4 0.48 2.44 -0.8 2.52 c-0.24 0 -1.88 0.08 -3.88 0.16 c-1.08 4.8 -2.04 9.8
              -1.04 12.04 c0.64 1.48 2.72 0.08 4.12 -4.84 c0 -0.04 1.64 0.32 1.48 0.92 c-1 3.68 -2.36 5.68 -4.24 6.44 c-2.2 0.88 -4.88 0.12 -5.92 -2.08 c-1.12 -2.48
               -0.48 -7.36 0.36 -12.32 c-1.56 0.04 -2.76 0.08 -3.04 0.04 c-1.56 -0.2 -1.24 -1.56 -0.96 -1.56 c0.4 0 2.16 -0.16 4.32 -0.32 c0.64 -3.6 1.32 -7.08 1.4 -9.4 z">

        </path>
    </g>
    <g id="SvgjsG1553"
       transform="matrix(2.708944024734987,0,0,2.708944024734987,96.80825244051755,171.04674054500686)"
       fill="#602b38">
        <path d="M11.68 34.56 c0.08 0.72 0.08 1.36 -0.04 1.96 c1.16 -0.8 2.48 -2.32 2.92
         -4.24 c0.04 -0.2 1.64 0.56 1.44 1.08 c-0.8 2.2 -2.2 3.76 -3.68 4.8 c-2.08 1.4
          -5.08 2.76 -7.48 1.44 c-1.48 -0.8 -2.48 -2.44 -2.16 -4.96 c0.16 -1.24 2.16 -1.36
           1.96 -0.48 c-1 4.16 2.04 5.24 2.28 2.88 c0.36 -3.48 -3.32 -7.72 -2.16 -12.08
            c-0.84 2.36 -2.2 5.92 -3.08 8.4 c-0.64 1.76 -1.72 -0.36 -1.6 -0.68 c1.48 -3.84
             3.48 -9.36 4.28 -11.4 c0.84 -2.08 7 1.2 6.16 2.68 c-2.16 4.16 0.72 6.52 1.16 10.6 z M18.416 10.280000000000001
              c0 -1.28 5.48 -0.88 5.4 1.84 c-0.08 4.72 -1.84 10.4 -3.32 19.16 c0.88 -2.24 2.44 -7.04 4.16 -8.44 c0.64 -0.52 1.48
               -0.72 2.32 -0.68 c2.76 0.12 4.04 1.96 3.52 4.68 c-0.48 2.48 -1.92 7.96 -0.88 10.24 c0.64 1.52 2.72 0.12 4.12 -4.84
               c0 0 1.64 0.36 1.48 0.88 c-1 3.72 -2.36 5.76 -4.24 6.52 c-2.2 0.88 -4.88 0.12 -5.92 -2.12 c-1.64 -3.68 0.28 -8.28
                0.64 -12.04 c0.04 -0.6 -0.04 -1 -0.4 -0.64 c-2.04 2 -5.08 11.24 -5.88 14.76 c-0.28 1.12 -4.2 0.16 -4.2 -3.4 c-0.04
                -7.72 3.28 -20.04 3.2 -25.92 z M42.912000000000006 24 c-0.36 0.16 -0.72 0.56 -1.16 1.16 c-2.2 3.12 -3.44 12.88 0.16
                13.08 c1.4 0.08 2.88 -2.48 3.68 -5.56 c-0.4 -0.24 -0.8 -0.52 -1.12 -0.88 c-1.4 -1.64 -1.44 -4.48 -1 -6.6 c0.84 -3.88
                 3.32 -3.64 4 -2.6 l0 0 c0.36 0.44 0.56 1.12 0.72 2 c0.08 0.4 0.12 0.8 0.16 1.28 c0.08 1.6 -0.04 3.56 -0.44 5.48
                  c1.6 0.08 3.56 -1.08 3.96 -2.68 c0 0 1.6 0.44 1.48 0.84 c-0.6 2.08 -3.4 3.68 -5.88 3.6 c-0.8 2.92 -2.2 5.52 -4.2 6.68 c-3.44 1.92
                   -8 -0.28 -8.72 -4.88 c-0.6 -3.92 0.84 -9.84 3.64 -12.16 c3.68 -3 5.68 0.68 4.72 1.24 z M58.328 37.36 c1.8 -1.64 2.92 -6.48 3.12
                   -9.96 c0.12 -2.64 -1.2 -4.92 -2.76 -1.76 c-1.4 2.8 -2.68 9.4 -1.76 11.56 c0.24 0.6 0.72 0.76 1.4 0.16 l0 0 z M70.208 33.24 c-1.32
                   4.52 -4.76 6.72 -9.04 7 c-2.04 0.12 -4.28 -0.08 -5.36 -2.08 c-0.04 -0.04 -0.08 -0.12 -0.12 -0.16 c-0.68 4.6 -1.2 9.76 -1 14.44 c0.04
                    1.12 -5.36 1.72 -5.12 -1.84 c0.48 -7 2.96 -19.96 3.64 -27.48 c0.08 -1.08 3.8 -0.92 4.76 0.72 c0.48 -0.52 1 -0.96 1.56 -1.2 c1.84 -0.8
                     4.12 0.16 5 1 l0.24 0.24 c2.8 3.36 0.6 10.84 -1.36 14.2 c1.4 -0.12 4.52 -1.88 5.32 -5.76 c0.08 -0.4 1.52 0.88 1.48 0.92 z">

        </path>
    </g>
</svg>
