<?xml version="1.0" standalone="yes"?>

<svg
    version="1.1" id="Capa_1" x="0px" y="0px"
    xmlns="http://www.w3.org/2000/svg"
    width="269.49397945919014"
     height="355.734375"
     viewBox="0 0 200 264.0017233140968"
    style="enable-background:new 0 0 460 460;"
    xml:space="preserve"
     class="css-1j8o68f">

    <defs id="SvgjsDefs1785">


</defs>
    <g id="SvgjsG1786" featurekey="symbolGroupContainer" transform="matrix(1,0,0,1,35,0)" fill="#ffffff">
        <rect width="130" height="146" rx="10">

        </rect>
    </g>
    <g id="SvgjsG1787" featurekey="DUScZC-0" transform="matrix(1.0333439201349706,0,0,1.0333439201349706,61.25114329010765,34.38344114414043)" fill="#323232">
        <path xmlns="http://www.w3.org/2000/svg" d="M71.283,20.903c-0.11-0.045-0.246-0.039-0.438,0.198c-0.176,0.218-1.385,1.771-1.46,1.835  c-0.076,0.062-0.159,0.003-0.106-0.117c0.052-0.121,1.308-2.793,1.445-3.164c0.134-0.361-0.003-0.48-0.102-0.52  c-0.123-0.048-0.371,0.009-0.492,0.32c-0.117,0.301-1.397,3.037-1.492,3.12c-0.094,0.083-0.255-0.007-0.16-0.463  c0.095-0.455,0.849-2.969,0.914-3.222c0.071-0.275-0.044-0.567-0.261-0.596s-0.365,0.079-0.463,0.475  c-0.077,0.306-0.391,1.294-0.718,2.683c-0.328,1.39-0.532,1.026-0.549,0.694c-0.017-0.333,0.334-2.35,0.381-2.568  c0.049-0.218,0.141-0.732-0.154-0.737c-0.294-0.005-0.348,0.488-0.497,1.024c-0.15,0.537-0.557,3.009-0.725,3.174  c-0.168,0.166-0.181-0.089-0.276-0.417c-0.094-0.329-0.025-0.921-0.058-1.174c-0.032-0.254,0.03-0.57-0.287-0.633  c-0.317-0.063-0.346,0.527-0.346,0.527l-0.031,2.139l0.029,0.76c0.022,0.61,0.073,1.547,0.073,1.547l0,0  c0.005,0.426,0.065,0.767-0.026,0.951c-0.196,0.393-0.786,0.918-1.967,2.817c-1.18,1.901-1.311,1.246-1.311,1.246  c-0.263-2.622-1.704-3.146-1.704-3.671c0-0.524-0.065-1.966-0.065-1.966s0.364-0.033,0.622-0.23  c0.259-0.196,1.344-1.475,1.344-1.475l0.492,0.291c0,0,0.364,0.201,0.401-0.106c0.038-0.315,0.139-0.855,0.385-1.266  c0.394-0.655,1.16-1.328,2.065-2.622c0.417-0.596,0.196-2.72-2.032-4.687c-2.229-1.966-3.802-0.918-5.113,0  c-1.311,0.918-2.408,3.425-2.408,3.425c-1.311-0.787-4.212-4.933-6.571-6.898c-2.359-1.967-3.583-1.274-4.687-0.853  c-1.311,0.501-4.031,1.278-6.293,1.9c-1.433,0.396-2.13,0.328-3.113,0.328s-3.285,0.099-4.138,0.164s-0.756,0.476-0.197,0.499  c1.133,0.045,2.877-0.131,2.877-0.131s-1.752,0.502-3.368,1.058c-0.786,0.271-0.713,0.958,0.318,0.545  c0.921-0.369,3.05-1.11,3.246-0.914s-2.613,1.795-3.662,2.581s-0.32,1.049,0.008,0.918s3.736-2.753,4.195-2.491  c0.459,0.263-2.442,2.409-3.098,3.195c-0.655,0.787-0.508,1.328,0.41,0.541c0.917-0.786,5.76-4.99,3.13-0.786  c-0.871,1.392-0.115,1.77,0.344,0.983c0.459-0.787,2.163-2.622,2.557-3.277c0.393-0.655,1.704-1.377,2.753-1.442  c1.048-0.065,6.325-0.263,6.325-0.263c0.065,0.853,0.754,2.295,1.54,3.475c0.787,1.18-0.262,2.294-1.966,2.949  c-1.705,0.655-4.588,3.277-5.703,3.999c-1.114,0.721-3.641,3.023-4.981,3.343c-1.409,0.335-3.182-0.169-5.44,2.163  c-2.031,2.098-0.394,3.539-1.639,4.522s-3.933,3.146-4.851,4.129c-0.918,0.982-2.425,2.818-3.605,3.867s-4.865,2.193-5.914,2.717  c-1.049,0.525-1.952,2.002-2.345,2.658c-0.394,0.656-1.115,1.246-2.557,2.818c-1.442,1.574-2.556,1.967-3.343,1.9  c-0.787-0.064-2.229-0.195-2.622,1.18c-0.394,1.377,0,4.326,0,5.967c0,1.639,0.393,2.949,0.655,3.932  c0.262,0.984,1.245,1.146,2.884,0.754c1.639-0.395,0.262-1.146-0.131-2c-0.394-0.852,0-1.506,0-2.424s0-2.033,0.787-2.885  s1.966-2.229,3.605-3.408s0.917-0.656,3.999-2.229c3.081-1.574,2.854-2.744,5.047-3.803c0.259-0.125,0.389,0.035,0.762-0.131  c0.431-0.191,1.111-0.711,1.464-0.82c2.649-0.816,5.1-2.398,6.295-3.178c1.508-0.982,4.916-3.67,4.916-3.67s0.787-1.049,1.442-0.525  c0.655,0.525,1.377,0.787,2.884,2.359c1.508,1.574,4.523,3.213,4.523,3.213c-3.507,0.262-3.343,1.639-4.13,2.031  c-0.786,0.395-2.49,0.525-3.867,1.049c-1.376,0.525-4.063,0.852-4.653,0.852c-0.591,0-2.622-0.721-2.491,1.639  c0.131,2.361,0.786,1.312,1.9,3.475c1.55,3.008,1.836,3.803,2.95,4.852c1.114,1.047,1.791,0.141,1.791,0.141s0.242-0.34,0.078-0.662  c-0.393-0.775-1.121-2.344-1.214-3.084c-0.131-1.049,0.263-2.688,0.394-3.344c0.131-0.654,2.097-0.918,2.818-1.113  c0.721-0.197,5.178-0.197,6.949-0.395c1.772-0.195,5.505-1.311,6.881-1.9c1.377-0.59,0.766-1.561,0.541-2.957  c-0.245-1.525-2.917-4.887-3.26-5.76c-0.591-1.508-1.342-2.75-2.688-4.098c-2.229-2.228-2.551-2.253-1.868-2.654  c1.009-0.592,3.474-1.114,4.654-1.376c1.18-0.263,4.26-1.573,5.506-1.9c1.245-0.328,3.604-2.033,3.604-2.033s0.59,1.836,1.049,2.688  c0.459,0.853,2.032,2.818,2.36,4.064c0.327,1.245,1.376,1.442,2.097,1.245c0.721-0.196,2.819-3.408,3.54-4.522  s1.311-3.54,1.573-3.998c0.157-0.276,0.396-0.438,0.626-0.714c0.002-0.001,0.004-0.001,0.005-0.003  c0.472-0.37,1.257-2.205,1.323-2.435c0.065-0.229,0.231-0.608,0.413-0.811c0.281-0.312,1.276-1.713,1.392-1.858  C71.353,21.266,71.446,20.972,71.283,20.903z">

        </path>
    </g>
    <g id="SvgjsG1788" featurekey="MdC7pD-0" transform="matrix(5.882352941176471,0,0,5.882352941176471,-9.529416701372933,127.05883261736702)" fill="#ffffff">
        <path d="M6.02 15.2 c-0.1 0 -0.18 -0.08 -0.18 -0.18 l0 -2.14 c0 -0.1 0.08 -0.18 0.18 -0.18 l4.58 0 c0.1 0 0.18 0.08 0.18 0.18 l0 3.14 c0 2.94 -1.58 4.18 -4.56 4.18 c-2.78 0 -4.6 -1.1 -4.6 -4.18 l0 -5.26 c0 -2.9 1.62 -4.14 4.6 -4.14 c2.8 0 4.56 1.08 4.56 4.14 l0 0.42 c0 0.1 -0.08 0.18 -0.18 0.18 l-2.3 0 c-0.1 0 -0.18 -0.08 -0.18 -0.18 l0 -0.26 c0 -1.22 -0.78 -1.62 -1.8 -1.62 l-0.24 0 c-0.66 0 -1.1 0.18 -1.4 0.58 c-0.28 0.38 -0.38 0.88 -0.38 1.54 l0 3.96 c0 1.74 0.94 2.12 1.78 2.12 l0.24 0 c1.22 0 1.8 -0.84 1.8 -2.12 l0 -0.18 l-2.1 0 z M2.84 15.879999999999999 c0 2.22 1.08 3.04 3.36 3.04 c2.4 0 3.38 -1 3.38 -3.46 l0 -1.5 c0 -0.06 -0.04 -0.14 -0.08 -0.14 l-2.78 0 c-0.18 0 -0.14 0.26 0 0.26 l2.62 0 l0 1.38 c0 2.14 -0.82 3.24 -3.14 3.24 c-1.92 0 -3.12 -0.68 -3.12 -2.82 l0 -4.82 c0 -2.06 0.94 -2.98 3.12 -2.98 c1.62 0 3.1 0.9 2.98 2.28 c0 0.16 0.22 0.2 0.26 0.02 c0 -1.76 -1.6 -2.52 -3.24 -2.52 c-2 0 -3.36 0.72 -3.36 3.2 l0 4.82 z M15.68 6.9 l1.74 3.36 l1.7 -3.36 c0.06 -0.1 0.08 -0.1 0.16 -0.1 l2.24 0 c0.12 0 0.2 0.12 0.16 0.22 l-2.9 6.74 l0 6.06 c0 0.1 -0.08 0.18 -0.18 0.18 l-2.36 0 c-0.06 0 -0.14 -0.08 -0.14 -0.18 l0 -6.06 l-2.98 -6.7 c-0.04 -0.14 0.02 -0.26 0.16 -0.26 l2.24 0 c0.08 0 0.1 0 0.16 0.1 z M17.52 13.3 l2.5 -5.2 c0.06 -0.12 -0.14 -0.22 -0.22 -0.08 l-2.38 4.98 l-2.44 -4.98 c-0.08 -0.14 -0.3 -0.04 -0.24 0.1 l2.56 5.18 l0 5.52 c0 0.14 0.22 0.16 0.22 0 l0 -5.52 z M35.440000000000005 6.800000000000001 c0.1 0 0.18 0.08 0.18 0.18 l0 12.84 c0 0.1 -0.08 0.18 -0.18 0.18 l-2.18 0 c-0.06 0 -0.16 -0.08 -0.16 -0.18 l0 -7.4 l-2.2 7.46 c-0.04 0.08 -0.08 0.12 -0.16 0.12 l-1.58 0 c-0.06 0 -0.14 -0.04 -0.16 -0.12 l-2.06 -7.6 l0 7.54 c0 0.1 -0.08 0.18 -0.18 0.18 l-2.22 0 c-0.08 0 -0.14 -0.08 -0.14 -0.18 l0 -12.84 c0 -0.1 0.06 -0.18 0.14 -0.18 l2.8 0 c0.08 0 0.16 0.06 0.18 0.12 l2.42 8.1 l2.66 -8.1 c0 -0.06 0.06 -0.12 0.14 -0.12 l2.7 0 z M34.2 18.78 c0 0.14 0.26 0.18 0.26 0 l0 -10.78 c0 -0.04 -0.06 -0.1 -0.12 -0.1 l-0.94 0 c-0.08 0 -0.1 0.06 -0.14 0.1 l-3.32 9.9 l-3.3 -9.92 c0 -0.06 -0.04 -0.08 -0.1 -0.08 l-0.98 0 c-0.06 0 -0.12 0.06 -0.12 0.12 l0 10.76 c0 0.14 0.26 0.18 0.26 0 l0 -10.62 l0.74 0 l3.38 10.16 c0.08 0.14 0.14 0.1 0.24 0 l3.4 -10.16 l0.74 0 l0 10.62 z">

        </path>
    </g>
    <g id="SvgjsG1789" featurekey="Pp8M4q-0" transform="matrix(0.5980360743890408,0,0,0.5980360743890408,18.87569218300026,251.93335486525402)" fill="#ffffff">
        <path d="M9.42 10.22 c0 0.78 -0.12 1.46 -0.4 1.96 c0.76 0.72 1.08 1.88 1.08 3.5 c0 1.72 -0.36 2.94 -1.18 3.58 c-0.78 0.62 -1.88 0.74 -2.98 0.74 l-3.9 0 c-0.1 0 -0.16 -0.08 -0.16 -0.18 l0 -12.84 c0 -0.1 0.06 -0.18 0.16 -0.18 l3.2 0 c1.08 0 2.2 0.08 2.96 0.58 c0.94 0.6 1.22 1.68 1.22 2.84 z M4.52 9.42 l0 1.8 l1.22 0 c0.64 0 0.98 -0.2 0.98 -0.9 s-0.52 -0.9 -1.4 -0.9 l-0.8 0 z M5.28 17.38 c1.1 0 2.14 -0.48 2.14 -1.76 c0 -0.96 -0.68 -1.72 -1.7 -1.72 l-1.2 0 l0 3.48 l0.76 0 z M3.04 8.06 l0 10.66 c0 0.1 0.08 0.14 0.16 0.14 l2.68 0 c1.94 0 3.1 -0.98 3.1 -3.08 c0 -1.5 -0.34 -3.06 -1.9 -3.5 c0.92 -0.3 1.16 -1.22 1.16 -2.2 c0 -1.6 -0.9 -2.18 -2.52 -2.18 l-2.52 0 c-0.12 0 -0.16 0.06 -0.16 0.16 z M5.58 18.62 l-2.28 0 l0 -6.16 l2.82 0 c2.06 0 2.58 1.34 2.58 3.32 c0 2.02 -1.1 2.92 -3.12 2.84 z M8 10.08 c0 1.62 -0.68 2.12 -2.32 2.12 l-2.38 0 l0 -4.04 l2.42 0 c1.18 0 2.28 0.22 2.28 1.92 z M19.532 20 c-0.1 0 -0.16 -0.08 -0.16 -0.18 l0 -12.84 c0 -0.1 0.06 -0.18 0.16 -0.18 l6.8 0 c0.1 0 0.18 0.08 0.18 0.18 l0 2.14 c0 0.1 -0.08 0.18 -0.18 0.18 l-4.32 0 l0 2.72 l3.36 0 c0.1 0 0.16 0.08 0.16 0.18 l0 2.18 c0 0.1 -0.06 0.18 -0.16 0.18 l-3.36 0 l0 2.94 l4.32 0 c0.1 0 0.18 0.08 0.18 0.18 l0 2.14 c0 0.1 -0.08 0.18 -0.18 0.18 l-6.8 0 z M20.532 8.06 l0 10.64 c0 0.12 0.08 0.16 0.16 0.16 l4.6 0 c0.18 0 0.14 -0.24 0 -0.24 l-4.5 0 l0 -5.22 l3.68 0 c0.12 0 0.12 -0.28 0 -0.28 l-3.68 0 l0 -4.96 l4.5 0 c0.14 0 0.18 -0.26 0 -0.26 l-4.6 0 c-0.08 0 -0.16 0.06 -0.16 0.16 z M37.944 9.3 l-2.84 0 c-0.1 0 -0.18 -0.08 -0.18 -0.18 l0 -2.14 c0 -0.1 0.08 -0.18 0.18 -0.18 l8.34 0 c0.1 0 0.18 0.08 0.18 0.18 l0 2.14 c0 0.1 -0.08 0.18 -0.18 0.18 l-2.84 0 l0 10.52 c0 0.1 -0.08 0.18 -0.18 0.18 l-2.3 0 c-0.1 0 -0.18 -0.08 -0.18 -0.18 l0 -10.52 z M42.224000000000004 7.9 l-6.04 0 c-0.14 0 -0.14 0.26 0 0.26 l2.96 0 l0 10.6 c0 0.14 0.26 0.14 0.26 0 l0 -10.6 l2.82 0 c0.2 0 0.18 -0.26 0 -0.26 z M54.476000000000006 9.3 l-2.84 0 c-0.1 0 -0.18 -0.08 -0.18 -0.18 l0 -2.14 c0 -0.1 0.08 -0.18 0.18 -0.18 l8.34 0 c0.1 0 0.18 0.08 0.18 0.18 l0 2.14 c0 0.1 -0.08 0.18 -0.18 0.18 l-2.84 0 l0 10.52 c0 0.1 -0.08 0.18 -0.18 0.18 l-2.3 0 c-0.1 0 -0.18 -0.08 -0.18 -0.18 l0 -10.52 z M58.75600000000001 7.9 l-6.04 0 c-0.14 0 -0.14 0.26 0 0.26 l2.96 0 l0 10.6 c0 0.14 0.26 0.14 0.26 0 l0 -10.6 l2.82 0 c0.2 0 0.18 -0.26 0 -0.26 z M69.10800000000002 20 c-0.1 0 -0.16 -0.08 -0.16 -0.18 l0 -12.84 c0 -0.1 0.06 -0.18 0.16 -0.18 l6.8 0 c0.1 0 0.18 0.08 0.18 0.18 l0 2.14 c0 0.1 -0.08 0.18 -0.18 0.18 l-4.32 0 l0 2.72 l3.36 0 c0.1 0 0.16 0.08 0.16 0.18 l0 2.18 c0 0.1 -0.06 0.18 -0.16 0.18 l-3.36 0 l0 2.94 l4.32 0 c0.1 0 0.18 0.08 0.18 0.18 l0 2.14 c0 0.1 -0.08 0.18 -0.18 0.18 l-6.8 0 z M70.10800000000002 8.06 l0 10.64 c0 0.12 0.08 0.16 0.16 0.16 l4.6 0 c0.18 0 0.14 -0.24 0 -0.24 l-4.5 0 l0 -5.22 l3.68 0 c0.12 0 0.12 -0.28 0 -0.28 l-3.68 0 l0 -4.96 l4.5 0 c0.14 0 0.18 -0.26 0 -0.26 l-4.6 0 c-0.08 0 -0.16 0.06 -0.16 0.16 z M92.96000000000001 14.780000000000001 c-0.28 0.58 -0.68 1.02 -1.24 1.28 l1.68 3.7 c0.06 0.12 -0.02 0.24 -0.14 0.24 l-2.46 0 c-0.08 0 -0.12 -0.04 -0.14 -0.1 l-1.56 -3.4 l-1.02 0 l0 3.32 c0 0.1 -0.08 0.18 -0.18 0.18 l-2.3 0 c-0.08 0 -0.14 -0.08 -0.14 -0.18 l0 -12.84 c0 -0.1 0.06 -0.18 0.14 -0.18 l4.16 0 c2.22 0 3.56 1.26 3.56 3.6 l0 2.52 c0 0.7 -0.12 1.36 -0.36 1.86 z M90.70000000000002 12.3 l0 -1.3 c0 -1.4 -0.52 -1.54 -2.04 -1.54 l-0.58 0 l0 4.42 l0.58 0 c1.26 0 2 -0.02 2.04 -1.58 z M86.92000000000002 18.78 l0 -3.42 l2.88 0 l1.68 3.46 c0.04 0.1 0.28 0.06 0.22 -0.12 l-1.68 -3.4 c1.56 -0.22 2.1 -1.04 2.1 -2.52 l0 -2.5 c0 -2.2 -2 -2.38 -2.62 -2.38 l-2.7 0 c-0.04 0 -0.12 0.06 -0.12 0.12 l0 10.76 c0 0.14 0.24 0.14 0.24 0 z M91.88000000000001 10.28 l0 2.5 c0 2.04 -1.3 2.32 -2.56 2.32 l-2.4 0 l0 -6.94 l2.58 0 c2.16 0 2.38 1.46 2.38 2.12 z M103.89200000000001 20.18 c-0.94 0 -1.74 -0.8 -1.74 -1.78 s0.8 -1.74 1.74 -1.74 c0.98 0 1.8 0.76 1.8 1.74 s-0.82 1.78 -1.8 1.78 z M103.912 19 c0.3 0 0.54 -0.22 0.54 -0.52 s-0.24 -0.52 -0.54 -0.52 s-0.52 0.22 -0.52 0.52 s0.22 0.52 0.52 0.52 z M103.912 18.2 c0.16 0 0.28 0.12 0.28 0.28 c0 0.18 -0.12 0.3 -0.28 0.3 s-0.3 -0.12 -0.3 -0.3 c0 -0.16 0.14 -0.28 0.3 -0.28 z M128.316 20 c-0.1 0 -0.16 -0.08 -0.16 -0.18 l0 -12.84 c0 -0.1 0.06 -0.18 0.16 -0.18 l6.8 0 c0.1 0 0.18 0.08 0.18 0.18 l0 2.14 c0 0.1 -0.08 0.18 -0.18 0.18 l-4.32 0 l0 2.72 l3.36 0 c0.1 0 0.16 0.08 0.16 0.18 l0 2.18 c0 0.1 -0.06 0.18 -0.16 0.18 l-3.36 0 l0 2.94 l4.32 0 c0.1 0 0.18 0.08 0.18 0.18 l0 2.14 c0 0.1 -0.08 0.18 -0.18 0.18 l-6.8 0 z M129.316 8.06 l0 10.64 c0 0.12 0.08 0.16 0.16 0.16 l4.6 0 c0.18 0 0.14 -0.24 0 -0.24 l-4.5 0 l0 -5.22 l3.68 0 c0.12 0 0.12 -0.28 0 -0.28 l-3.68 0 l0 -4.96 l4.5 0 c0.14 0 0.18 -0.26 0 -0.26 l-4.6 0 c-0.08 0 -0.16 0.06 -0.16 0.16 z M146.36800000000002 6.92 l2.2 8.28 l2.26 -8.28 c0.04 -0.06 0.08 -0.12 0.16 -0.12 l2.28 0 c0.12 0 0.2 0.1 0.16 0.22 l-3.46 12.86 c-0.04 0.08 -0.08 0.12 -0.16 0.12 l-2.48 0 c-0.06 0 -0.12 -0.04 -0.14 -0.12 l-3.46 -12.86 c-0.02 -0.12 0.06 -0.22 0.18 -0.22 l2.3 0 c0.08 0 0.12 0.06 0.16 0.12 z M148.52800000000002 18.62 l-3.34 -10.66 c-0.06 -0.16 -0.28 -0.06 -0.22 0.06 l3.32 10.68 c0.08 0.3 0.4 0.32 0.5 0 l3.2 -10.68 c0.04 -0.12 -0.18 -0.2 -0.22 -0.06 z M162.36 20 c-0.1 0 -0.16 -0.08 -0.16 -0.18 l0 -12.84 c0 -0.1 0.06 -0.18 0.16 -0.18 l6.8 0 c0.1 0 0.18 0.08 0.18 0.18 l0 2.14 c0 0.1 -0.08 0.18 -0.18 0.18 l-4.32 0 l0 2.72 l3.36 0 c0.1 0 0.16 0.08 0.16 0.18 l0 2.18 c0 0.1 -0.06 0.18 -0.16 0.18 l-3.36 0 l0 2.94 l4.32 0 c0.1 0 0.18 0.08 0.18 0.18 l0 2.14 c0 0.1 -0.08 0.18 -0.18 0.18 l-6.8 0 z M163.36 8.06 l0 10.64 c0 0.12 0.08 0.16 0.16 0.16 l4.6 0 c0.18 0 0.14 -0.24 0 -0.24 l-4.5 0 l0 -5.22 l3.68 0 c0.12 0 0.12 -0.28 0 -0.28 l-3.68 0 l0 -4.96 l4.5 0 c0.14 0 0.18 -0.26 0 -0.26 l-4.6 0 c-0.08 0 -0.16 0.06 -0.16 0.16 z M186.21200000000002 14.780000000000001 c-0.28 0.58 -0.68 1.02 -1.24 1.28 l1.68 3.7 c0.06 0.12 -0.02 0.24 -0.14 0.24 l-2.46 0 c-0.08 0 -0.12 -0.04 -0.14 -0.1 l-1.56 -3.4 l-1.02 0 l0 3.32 c0 0.1 -0.08 0.18 -0.18 0.18 l-2.3 0 c-0.08 0 -0.14 -0.08 -0.14 -0.18 l0 -12.84 c0 -0.1 0.06 -0.18 0.14 -0.18 l4.16 0 c2.22 0 3.56 1.26 3.56 3.6 l0 2.52 c0 0.7 -0.12 1.36 -0.36 1.86 z M183.95200000000003 12.3 l0 -1.3 c0 -1.4 -0.52 -1.54 -2.04 -1.54 l-0.58 0 l0 4.42 l0.58 0 c1.26 0 2 -0.02 2.04 -1.58 z M180.17200000000003 18.78 l0 -3.42 l2.88 0 l1.68 3.46 c0.04 0.1 0.28 0.06 0.22 -0.12 l-1.68 -3.4 c1.56 -0.22 2.1 -1.04 2.1 -2.52 l0 -2.5 c0 -2.2 -2 -2.38 -2.62 -2.38 l-2.7 0 c-0.04 0 -0.12 0.06 -0.12 0.12 l0 10.76 c0 0.14 0.24 0.14 0.24 0 z M185.13200000000003 10.28 l0 2.5 c0 2.04 -1.3 2.32 -2.56 2.32 l-2.4 0 l0 -6.94 l2.58 0 c2.16 0 2.38 1.46 2.38 2.12 z M197.604 6.9 l1.74 3.36 l1.7 -3.36 c0.06 -0.1 0.08 -0.1 0.16 -0.1 l2.24 0 c0.12 0 0.2 0.12 0.16 0.22 l-2.9 6.74 l0 6.06 c0 0.1 -0.08 0.18 -0.18 0.18 l-2.36 0 c-0.06 0 -0.14 -0.08 -0.14 -0.18 l0 -6.06 l-2.98 -6.7 c-0.04 -0.14 0.02 -0.26 0.16 -0.26 l2.24 0 c0.08 0 0.1 0 0.16 0.1 z M199.44400000000002 13.3 l2.5 -5.2 c0.06 -0.12 -0.14 -0.22 -0.22 -0.08 l-2.38 4.98 l-2.44 -4.98 c-0.08 -0.14 -0.3 -0.04 -0.24 0.1 l2.56 5.18 l0 5.52 c0 0.14 0.22 0.16 0.22 0 l0 -5.52 z M230.94800000000004 6.800000000000001 c1.36 0 2.38 0.38 3.06 1.12 c0.6 0.66 0.9 1.64 0.9 2.84 l0 5.3 c0 2.42 -1.4 3.94 -3.96 3.94 l-5 0 c-0.1 0 -0.16 -0.08 -0.16 -0.18 l0 -12.84 c0 -0.1 0.06 -0.18 0.16 -0.18 l5 0 z M232.28800000000004 15.46 l0 -4.1 c0 -1.26 -0.66 -2.06 -2.06 -2.06 l-1.8 0 l0 8.2 l1.8 0 c1.2 0 2.06 -0.78 2.06 -2.04 z M227.00800000000004 8.02 l0 10.76 c0 0.08 0.08 0.1 0.12 0.1 l3.26 0 c2.3 0 3.34 -1.38 3.34 -2.66 l0 -5.12 c0 -2.12 -1.12 -3.2 -3.4 -3.2 l-3.2 0 c-0.04 0 -0.12 0.02 -0.12 0.12 z M233.48800000000006 11.1 l0 5.12 c0 1.6 -1.6 2.44 -3.1 2.44 l-3.14 0 l0 -10.5 l3.08 0 c2.1 0 3.16 0.94 3.16 2.94 z M246.90000000000003 6.92 c0.02 -0.06 0.06 -0.12 0.14 -0.12 l2.48 0 c0.08 0 0.12 0.06 0.14 0.12 l3.46 12.86 c0.02 0.12 -0.06 0.22 -0.18 0.22 l-2.28 0 c-0.06 0 -0.12 -0.04 -0.14 -0.12 l-0.78 -2.8 l-2.92 0 l-0.76 2.8 c-0.02 0.08 -0.06 0.12 -0.14 0.12 l-2.3 0 c-0.12 0 -0.2 -0.1 -0.18 -0.22 z M247.46000000000004 14.6 l1.66 0 l-0.86 -3.02 z M250.54000000000005 15.780000000000001 l0.92 3 c0.04 0.12 0.26 0.1 0.2 -0.06 l-3.2 -10.64 c-0.06 -0.26 -0.4 -0.28 -0.46 0 l-3.1 10.64 c-0.06 0.14 0.16 0.2 0.22 0.08 l0.88 -3.02 l4.54 0 z M246.06000000000003 15.52 l2.18 -7.36 l2.22 7.36 l-4.4 0 z M263.41200000000003 6.9 l1.74 3.36 l1.7 -3.36 c0.06 -0.1 0.08 -0.1 0.16 -0.1 l2.24 0 c0.12 0 0.2 0.12 0.16 0.22 l-2.9 6.74 l0 6.06 c0 0.1 -0.08 0.18 -0.18 0.18 l-2.36 0 c-0.06 0 -0.14 -0.08 -0.14 -0.18 l0 -6.06 l-2.98 -6.7 c-0.04 -0.14 0.02 -0.26 0.16 -0.26 l2.24 0 c0.08 0 0.1 0 0.16 0.1 z M265.25200000000007 13.3 l2.5 -5.2 c0.06 -0.12 -0.14 -0.22 -0.22 -0.08 l-2.38 4.98 l-2.44 -4.98 c-0.08 -0.14 -0.3 -0.04 -0.24 0.1 l2.56 5.18 l0 5.52 c0 0.14 0.22 0.16 0.22 0 l0 -5.52 z">

        </path>
    </g>
</svg>
